<svg width="30" height="24" viewBox="0 0 30 24" fill="none" xmlns="http://www.w3.org/2000/svg">
<path fill-rule="evenodd" clip-rule="evenodd" d="M4.5 24C3.30653 24 2.16193 23.5259 1.31802 22.682C0.474106 21.8381 0 20.6935 0 19.5V4.5C0 3.30653 0.474106 2.16193 1.31802 1.31802C2.16193 0.474106 3.30653 0 4.5 0H25.5C26.6935 0 27.8381 0.474106 28.682 1.31802C29.5259 2.16193 30 3.30653 30 4.5V19.5C30 20.6935 29.5259 21.8381 28.682 22.682C27.8381 23.5259 26.6935 24 25.5 24H4.5ZM8.4375 6.33C8.2847 6.19953 8.10725 6.10108 7.91567 6.0405C7.72409 5.97993 7.5223 5.95846 7.32227 5.97737C7.12223 5.99628 6.92804 6.05519 6.75121 6.15059C6.57438 6.246 6.41852 6.37596 6.29288 6.53276C6.16724 6.68955 6.07438 6.86999 6.01982 7.06337C5.96525 7.25674 5.9501 7.45911 5.97524 7.65845C6.00039 7.8578 6.06533 8.05006 6.16621 8.22383C6.26709 8.39759 6.40186 8.54932 6.5625 8.67L12.1875 13.1715C12.9856 13.8105 13.9776 14.1587 15 14.1587C16.0224 14.1587 17.0144 13.8105 17.8125 13.1715L23.4375 8.6715C23.5913 8.54839 23.7194 8.39618 23.8145 8.22356C23.9095 8.05094 23.9696 7.8613 23.9913 7.66546C24.013 7.46962 23.996 7.27142 23.9411 7.08218C23.8862 6.89293 23.7946 6.71634 23.6715 6.5625C23.5484 6.40866 23.3962 6.28057 23.2236 6.18555C23.0509 6.09053 22.8613 6.03044 22.6655 6.00871C22.4696 5.98698 22.2714 6.00404 22.0822 6.05891C21.8929 6.11378 21.7163 6.20539 21.5625 6.3285L15.9375 10.8285C15.6715 11.0415 15.3408 11.1576 15 11.1576C14.6592 11.1576 14.3285 11.0415 14.0625 10.8285L8.4375 6.3285V6.33Z" fill="#333333"/>
</svg>
