<svg width="24" height="24" viewBox="0 0 24 24" fill="none" xmlns="http://www.w3.org/2000/svg">
<path d="M13.2338 0.00147642C14.1095 -0.00188373 14.9851 0.00691691 15.8606 0.0278756L16.0933 0.0362753C16.3621 0.045875 16.6273 0.0578745 16.9477 0.072274C18.2245 0.132272 19.0956 0.333865 19.86 0.630255C20.652 0.935045 21.3192 1.34783 21.9863 2.01501C22.5964 2.61452 23.0685 3.3397 23.3699 4.14014C23.6663 4.90451 23.8679 5.77688 23.9279 7.05364C23.9423 7.37283 23.9543 7.63922 23.9639 7.90801L23.9711 8.1408C23.9924 9.0158 24.0016 9.89106 23.9987 10.7663L23.9999 11.6615V13.2334C24.0028 14.1091 23.9936 14.9847 23.9723 15.8601L23.9651 16.0929C23.9555 16.3617 23.9435 16.6269 23.9291 16.9473C23.8691 18.2241 23.6651 19.0952 23.3699 19.8596C23.0695 20.6609 22.5972 21.3867 21.9863 21.9859C21.3863 22.5959 20.6608 23.068 19.86 23.3695C19.0956 23.6659 18.2245 23.8675 16.9477 23.9275C16.6273 23.9419 16.3621 23.9539 16.0933 23.9635L15.8606 23.9707C14.9852 23.992 14.1095 24.0012 13.2338 23.9983L12.3387 23.9995H10.7679C9.89227 24.0024 9.01662 23.9932 8.14122 23.9719L7.90842 23.9647C7.62357 23.9543 7.33877 23.9423 7.05405 23.9287C5.7773 23.8687 4.90613 23.6647 4.14055 23.3695C3.3398 23.0687 2.61449 22.5965 2.01542 21.9859C1.4047 21.3863 0.93213 20.6606 0.630671 19.8596C0.334281 19.0952 0.132688 18.2241 0.0726899 16.9473C0.0593258 16.6626 0.0473261 16.3778 0.0366911 16.0929L0.0306915 15.8601C0.00856853 14.9847 -0.00143221 14.1091 0.000692377 13.2334V10.7663C-0.00265667 9.89106 0.00614397 9.01581 0.0270916 8.1408L0.0354912 7.90801C0.0450909 7.63922 0.0570905 7.37283 0.07149 7.05364C0.131488 5.77568 0.333081 4.90571 0.629471 4.14014C0.931108 3.33931 1.4046 2.61432 2.01662 2.01621C2.61528 1.40513 3.34013 0.932132 4.14055 0.630255C4.90613 0.333865 5.7761 0.132272 7.05405 0.072274L7.90842 0.0362753L8.14122 0.0302756C9.01621 0.00816377 9.89146 -0.00183696 10.7667 0.000276552L13.2338 0.00147642ZM12.0003 6.00127C11.2053 5.99003 10.416 6.1369 9.67834 6.43334C8.94062 6.72978 8.26919 7.16989 7.70304 7.72808C7.1369 8.28627 6.68735 8.95142 6.3805 9.68486C6.07365 10.4183 5.91564 11.2054 5.91564 12.0005C5.91564 12.7955 6.07365 13.5826 6.3805 14.3161C6.68735 15.0495 7.1369 15.7147 7.70304 16.2729C8.26919 16.831 8.94062 17.2712 9.67834 17.5676C10.416 17.864 11.2053 18.0109 12.0003 17.9997C13.5915 17.9997 15.1176 17.3675 16.2428 16.2424C17.368 15.1172 18.0001 13.5911 18.0001 11.9999C18.0001 10.4086 17.368 8.88255 16.2428 7.75737C15.1176 6.63219 13.5915 6.00127 12.0003 6.00127ZM12.0003 8.40119C12.4785 8.39238 12.9536 8.47894 13.398 8.65583C13.8424 8.83272 14.247 9.09638 14.5883 9.43141C14.9296 9.76644 15.2008 10.1661 15.3859 10.6071C15.571 11.0481 15.6664 11.5216 15.6665 11.9999C15.6666 12.4781 15.5713 12.9516 15.3864 13.3927C15.2014 13.8337 14.9304 14.2335 14.5892 14.5687C14.248 14.9038 13.8434 15.1676 13.3991 15.3446C12.9548 15.5217 12.4797 15.6084 12.0015 15.5997C11.0467 15.5997 10.1311 15.2205 9.45599 14.5454C8.78088 13.8703 8.40161 12.9546 8.40161 11.9999C8.40161 11.0451 8.78088 10.1295 9.45599 9.45437C10.1311 8.77926 11.0467 8.39999 12.0015 8.39999L12.0003 8.40119ZM18.3001 4.20133C17.913 4.21683 17.5468 4.38151 17.2784 4.66088C17.01 4.94026 16.8601 5.31266 16.8601 5.70008C16.8601 6.08751 17.01 6.45991 17.2784 6.73928C17.5468 7.01866 17.913 7.18334 18.3001 7.19883C18.6979 7.19883 19.0794 7.0408 19.3607 6.75951C19.642 6.47821 19.8 6.09669 19.8 5.69888C19.8 5.30107 19.642 4.91955 19.3607 4.63826C19.0794 4.35696 18.6979 4.19893 18.3001 4.19893V4.20133Z" fill="#333333"/>
</svg>
