<svg width="28" height="24" viewBox="0 0 28 24" fill="none" xmlns="http://www.w3.org/2000/svg">
<path d="M4.0984 10.8002H26.3988C26.717 10.8002 27.0222 10.9266 27.2472 11.1516C27.4722 11.3766 27.5986 11.6818 27.5986 12C27.5986 12.3182 27.4722 12.6234 27.2472 12.8484C27.0222 13.0734 26.717 13.1998 26.3988 13.1998H4.0984L12.8501 21.9491C13.0754 22.1744 13.202 22.48 13.202 22.7986C13.202 23.1173 13.0754 23.4228 12.8501 23.6481C12.6248 23.8734 12.3192 24 12.0006 24C11.682 24 11.3764 23.8734 11.1511 23.6481L0.352474 12.8495C0.240738 12.738 0.152086 12.6056 0.0915985 12.4599C0.0311108 12.3141 -2.47955e-05 12.1578 -2.47955e-05 12C-2.47955e-05 11.8422 0.0311108 11.6859 0.0915985 11.5401C0.152086 11.3944 0.240738 11.262 0.352474 11.1505L11.1511 0.351871C11.3764 0.126572 11.682 0 12.0006 0C12.3192 0 12.6248 0.126572 12.8501 0.351871C13.0754 0.577171 13.202 0.882743 13.202 1.20136C13.202 1.51999 13.0754 1.82556 12.8501 2.05086L4.0984 10.8002Z" fill="#333333"/>
</svg>
