<svg width="25" height="24" viewBox="0 0 25 24" fill="none" xmlns="http://www.w3.org/2000/svg">
<path d="M0 20.9037V9.46789C0.13963 9.24435 0.348135 9.19176 0.599844 9.19301C2.57156 9.19864 4.54266 9.19614 6.51438 9.19614C6.60579 9.19614 6.69721 9.19614 6.81117 9.19614V8.91876C6.81117 8.13045 6.81555 7.34151 6.80804 6.5532C6.80616 6.33405 6.87566 6.16499 7.03219 6.01284C7.4467 5.6096 7.8587 5.20324 8.25693 4.78435C8.34146 4.69481 8.40094 4.54579 8.4047 4.42244C8.42098 3.90775 8.40282 3.39181 8.41534 2.87649C8.42035 2.65985 8.37151 2.49768 8.20245 2.3449C7.94198 2.10884 7.95325 1.89846 8.20746 1.64237C8.65327 1.1928 9.10159 0.745734 9.55304 0.3018C9.66387 0.192225 9.78972 0.0995565 9.90869 0C14.6204 0 19.3321 0 24.0438 0V4.92147C23.9148 5.13937 23.7232 5.20511 23.4734 5.20449C21.1504 5.19823 18.8268 5.20073 16.5038 5.20073H16.2565L16.2227 5.25896C16.4913 5.51631 16.7762 5.75862 17.0204 6.03663C17.1325 6.16499 17.2139 6.35972 17.2239 6.53003C17.2514 6.99713 17.2333 7.46611 17.2333 7.93509C17.2333 8.34709 17.2333 8.75847 17.2333 9.19551H17.5307C19.5018 9.19551 21.4735 9.19802 23.4446 9.19238C23.6963 9.19176 23.9048 9.24435 24.0445 9.46726V20.9031C23.9618 21.0058 23.8879 21.1172 23.7953 21.2099C22.9456 22.0621 22.0909 22.9093 21.2425 23.7639C21.0834 23.9242 20.9119 23.9994 20.6821 23.9994C14.9084 23.9956 9.1354 23.9956 3.36175 23.9994C3.13259 23.9994 2.96102 23.9242 2.80136 23.7639C1.96483 22.9205 1.12079 22.0846 0.28239 21.2431C0.179076 21.1392 0.0939212 21.0171 0 20.9031L0 20.9037ZM0.813358 10.0089C0.808349 10.074 0.800835 10.1266 0.800209 10.1792C0.800209 13.6086 0.79833 17.0373 0.805218 20.4667C0.805218 20.5669 0.867832 20.6902 0.940464 20.7641C1.6981 21.5318 2.46136 22.295 3.23214 23.0495C3.31479 23.1303 3.45818 23.1923 3.57339 23.1923C9.20866 23.1992 14.8433 23.1992 20.4786 23.1923C20.5875 23.1923 20.7228 23.1359 20.801 23.0595C21.5718 22.3044 22.3363 21.5424 23.0915 20.7722C23.1766 20.6852 23.2374 20.5324 23.238 20.4103C23.2455 17.0279 23.2442 13.6455 23.2442 10.2637C23.2442 10.1811 23.2442 10.0984 23.2442 10.0082H0.813358V10.0089ZM23.2367 0.81461H17.2471V4.38487H23.2367V0.81461ZM16.4143 4.39614V0.79833H16.115C14.2616 0.79833 12.4089 0.803339 10.5555 0.792695C10.2931 0.790817 10.1028 0.853431 9.92309 1.05067C9.6263 1.37626 9.29883 1.6743 9.00329 1.96483C9.50107 2.46011 9.96942 2.92658 10.434 3.38868C10.6225 3.20334 10.8272 3.00297 11.0733 2.76191C10.8899 2.59661 10.6864 2.45447 10.5417 2.26663C10.4628 2.16394 10.4346 1.96671 10.476 1.84336C10.5104 1.74005 10.6782 1.62421 10.7903 1.61983C10.9168 1.61544 11.0733 1.7031 11.1722 1.79765C11.6024 2.20652 12.0119 2.63731 12.4414 3.0468C12.526 3.12758 12.6662 3.18831 12.7821 3.19019C13.556 3.20271 14.3299 3.19457 15.1044 3.1977C15.482 3.19896 15.6272 3.34798 15.631 3.72492C15.6335 3.9472 15.631 4.16948 15.631 4.39677H16.4124L16.4143 4.39614ZM9.22619 6.80678V9.18049H14.8145V6.80678H9.22619ZM8.39405 9.18487V5.75111C8.14422 6.01409 7.93321 6.22134 7.74224 6.4455C7.67399 6.52502 7.61826 6.64461 7.61701 6.7473C7.60574 7.41852 7.61137 8.08975 7.61137 8.76097C7.61137 8.89872 7.61137 9.0371 7.61137 9.18487H8.39468H8.39405ZM16.4331 9.18487C16.4331 8.32455 16.4331 7.49053 16.4318 6.65651C16.4318 6.61957 16.4262 6.57135 16.403 6.54819C16.1626 6.30086 15.9184 6.05729 15.6466 5.78492V9.18549H16.4325L16.4331 9.18487ZM10.0145 5.98654C10.0145 5.39734 10.0145 4.82192 10.0133 4.24712C10.0133 4.21018 10.0076 4.16196 9.98445 4.13817C9.74464 3.89147 9.50044 3.64853 9.22619 3.37302V5.98654H10.0145ZM10.8178 5.98216H11.5999V3.35862C11.3256 3.64414 11.099 3.87707 10.878 4.11563C10.8448 4.15132 10.821 4.21143 10.821 4.26027C10.8172 4.82755 10.8185 5.39546 10.8185 5.98216H10.8178ZM12.4252 5.98779H13.2116V3.99729C12.9812 3.99729 12.7645 3.9904 12.5491 4.00292C12.5053 4.00543 12.4308 4.08244 12.4302 4.12565C12.422 4.73989 12.4245 5.35476 12.4245 5.98716L12.4252 5.98779ZM14.045 4.01231V5.98028H14.8176V4.01231H14.045Z" fill="black"/>
<path d="M23.2367 0.814606V4.38486H17.2471V0.814606H23.2367Z" fill="#22B573"/>
<path d="M16.4143 4.39614H15.6328C15.6328 4.16885 15.6347 3.94657 15.6328 3.72429C15.6285 3.34735 15.4832 3.19896 15.1062 3.19708C14.3323 3.19395 13.5578 3.20209 12.7839 3.18957C12.6681 3.18769 12.5278 3.12633 12.4433 3.04618C12.0137 2.63668 11.6049 2.2059 11.1741 1.79703C11.0752 1.70311 10.9186 1.61482 10.7921 1.6192C10.6801 1.62296 10.5122 1.73942 10.4778 1.84274C10.4365 1.96609 10.464 2.1627 10.5436 2.26601C10.6876 2.45385 10.8917 2.59599 11.0752 2.76129C10.8291 3.00235 10.625 3.20334 10.4359 3.38805C9.97126 2.92596 9.50291 2.46011 9.00513 1.96421C9.30067 1.67368 9.62814 1.37564 9.92493 1.05004C10.1046 0.852808 10.2944 0.790819 10.5573 0.792072C12.4101 0.803342 14.2635 0.797707 16.1168 0.797707H16.4161V4.39552L16.4143 4.39614Z" fill="#22B573"/>
<path d="M10.0139 5.9859H9.22559V3.37239C9.49984 3.64789 9.74403 3.89084 9.98384 4.13754C10.007 4.16133 10.0126 4.20954 10.0126 4.24648C10.0145 4.82128 10.0139 5.39671 10.0139 5.9859Z" fill="#22B573"/>
<path d="M10.8179 5.98216C10.8179 5.39547 10.8166 4.82756 10.8204 4.26027C10.8204 4.21143 10.8442 4.15132 10.8774 4.11563C11.0984 3.8777 11.3251 3.64477 11.5993 3.35863V5.98216H10.8173H10.8179Z" fill="#22B573"/>
<path d="M12.4252 5.98716C12.4252 5.35476 12.4227 4.74051 12.4308 4.12564C12.4308 4.08244 12.5059 4.00542 12.5498 4.00292C12.7652 3.98977 12.9818 3.99728 13.2122 3.99728V5.98779H12.4258L12.4252 5.98716Z" fill="#22B573"/>
<path d="M14.0449 4.01169H14.8176V5.97965H14.0449V4.01169Z" fill="#22B573"/>
<path d="M15.8633 13.9072C15.9691 13.834 16.053 13.7782 16.1338 13.7188C16.2897 13.6029 16.4531 13.5516 16.6334 13.6599C16.8144 13.7695 16.8419 13.9404 16.8125 14.1301C16.7749 14.3693 16.7461 14.6104 16.6904 14.8452C16.6435 15.0437 16.6867 15.2002 16.7987 15.3686C17.304 16.1294 17.7974 16.8983 18.2946 17.6653C18.4768 17.9465 18.4737 18.0686 18.2764 18.3447C17.6678 19.1962 17.0548 20.0447 16.4525 20.9006C16.3022 21.1141 16.1219 21.2024 15.8608 21.1986C15.0787 21.188 14.2961 21.1949 13.5134 21.1949C13.4288 21.1949 13.3443 21.1949 13.2247 21.1949C13.2247 21.3395 13.2548 21.4716 13.2172 21.5806C13.1696 21.7171 13.0926 21.8717 12.9799 21.95C12.8365 22.0496 12.6637 21.9895 12.5303 21.8674C12.4959 21.8354 12.4564 21.8066 12.4308 21.7684C12.087 21.2631 11.6093 21.1523 11.0176 21.1817C10.0734 21.2287 9.12475 21.188 8.17803 21.198C7.91505 21.2011 7.73847 21.1066 7.58945 20.8943C6.99149 20.0447 6.38288 19.2031 5.77865 18.3578C5.56576 18.0598 5.56514 17.9565 5.76926 17.6403C6.32026 16.7881 6.87189 15.9359 7.43793 15.0606C7.3127 14.9673 7.19248 14.8734 7.06725 14.787C6.90258 14.673 6.78048 14.5352 6.82619 14.3205C6.87377 14.0951 7.04784 14.0162 7.25509 13.9836C7.44794 13.9536 7.64017 13.896 7.83302 13.8922C8.14296 13.8859 8.3139 13.7294 8.47106 13.4771C8.97009 12.675 9.49918 11.8917 10.0057 11.094C10.1429 10.878 10.3157 10.7909 10.568 10.7928C11.5379 10.8003 12.5084 10.8009 13.4789 10.7928C13.7432 10.7903 13.9122 10.8911 14.0531 11.114C14.596 11.9718 15.1532 12.8202 15.7055 13.6718C15.7518 13.7432 15.8007 13.8133 15.8645 13.9079L15.8633 13.9072ZM13.2216 18.7961C13.5841 18.7961 13.9191 18.7523 14.2378 18.8055C14.8483 18.9082 15.2196 18.6603 15.4682 18.1287C15.5233 18.011 15.5283 17.9427 15.4607 17.8388C15.2353 17.4919 15.0124 17.1431 14.8039 16.7856C14.7124 16.6284 14.6022 16.5527 14.4194 16.5345C14.1477 16.5076 13.879 16.4487 13.6098 16.4018C13.4263 16.3698 13.2848 16.2822 13.2429 16.0893C13.2022 15.9009 13.2748 15.7543 13.4314 15.6454C13.5772 15.5433 13.7213 15.4381 13.8571 15.3411C13.8527 15.3029 13.8559 15.2854 13.8484 15.2735C13.5772 14.8352 13.308 14.3956 13.0319 13.9611C12.8697 13.7062 12.7482 13.3612 12.5128 13.2366C12.2736 13.1102 11.9167 13.1934 11.6124 13.2085C11.5235 13.2128 11.4064 13.2773 11.3582 13.3512C11.0808 13.7757 10.841 14.2266 10.5473 14.6386C10.29 14.9998 10.1767 15.3574 10.3219 15.7894C10.3733 15.9428 10.3752 16.1119 10.4052 16.2728C10.4396 16.4588 10.3977 16.6184 10.2362 16.7249C10.074 16.8319 9.91056 16.8075 9.75465 16.6998C9.64883 16.6266 9.54114 16.5546 9.42593 16.4757C9.24247 16.7725 9.07278 17.0429 8.90748 17.3172C8.77161 17.5432 8.53305 17.7762 8.53994 17.9997C8.54682 18.2257 8.79039 18.4511 8.94881 18.6634C8.9989 18.7304 9.10659 18.7905 9.18862 18.7911C10.0258 18.8005 10.8635 18.7999 11.7007 18.7918C11.7896 18.7911 11.8961 18.7448 11.9637 18.6847C12.1615 18.5075 12.3281 18.2927 12.5385 18.1343C12.6455 18.0535 12.8428 18.0028 12.9574 18.0473C13.0726 18.0917 13.1634 18.2602 13.2141 18.3935C13.2554 18.5025 13.2222 18.6396 13.2222 18.7974L13.2216 18.7961ZM8.25379 14.6304C8.44852 14.8853 8.37213 15.1007 8.22248 15.3273C7.67649 16.1544 7.14427 16.9903 6.60015 17.8187C6.51875 17.9421 6.51812 18.026 6.60578 18.1468C7.11171 18.8406 7.61074 19.5394 8.10539 20.2413C8.18679 20.3571 8.27508 20.3991 8.41471 20.3966C8.85238 20.3884 9.29068 20.3934 9.72835 20.3934H11.037C10.7596 20.116 10.7746 19.86 11.0426 19.5945C10.3031 19.5945 9.62253 19.587 8.94254 19.5982C8.69459 19.6026 8.53117 19.5112 8.40218 19.3046C8.19117 18.9671 7.97015 18.6358 7.74035 18.3109C7.5882 18.0967 7.59384 17.9064 7.73346 17.6866C8.11854 17.0811 8.49485 16.4694 8.8649 15.8545C8.99764 15.6335 9.14166 15.4551 9.46224 15.512C9.40151 15.1482 9.34578 14.8145 9.28692 14.4601C8.93503 14.5177 8.60631 14.5716 8.25379 14.6298V14.6304ZM9.32011 13.6261C9.78283 13.5841 9.84669 13.6129 10.0427 13.941C10.2969 13.5303 10.5555 13.1314 10.7934 12.7207C10.9255 12.4921 11.0965 12.3876 11.3626 12.3957C11.7846 12.4089 12.2072 12.4082 12.6286 12.3957C12.8922 12.3876 13.0644 12.4846 13.2022 12.7126C13.663 13.4727 14.1376 14.2253 14.6129 14.9767C14.7707 15.2259 14.9378 15.4657 14.6692 15.7662C15.0349 15.827 15.3561 15.8796 15.6974 15.9366C15.7575 15.5778 15.8144 15.2365 15.8764 14.8665C15.5821 14.9153 15.4425 14.7469 15.3135 14.5465C14.7187 13.6211 14.122 12.6969 13.5165 11.7783C13.462 11.6957 13.3437 11.6062 13.2529 11.6049C12.432 11.5918 11.6112 11.5955 10.7903 11.6005C10.722 11.6005 10.6231 11.6293 10.5905 11.6794C10.1679 12.315 9.75465 12.9561 9.31948 13.6261H9.32011ZM15.75 16.7931C15.9472 17.1099 16.1306 17.4142 16.3241 17.7117C16.4556 17.9139 16.4519 18.0967 16.3135 18.2959C16.0774 18.6352 15.8489 18.9802 15.626 19.3284C15.5051 19.5175 15.3492 19.6014 15.1207 19.5982C14.4169 19.5888 13.7131 19.5901 13.01 19.5976C12.7814 19.6001 12.5742 19.5776 12.4565 19.3822C12.2342 19.5913 12.02 19.7923 11.8159 19.9846C12.025 20.1993 12.2304 20.4097 12.4502 20.6357C12.5785 20.4091 12.7902 20.3915 13.0181 20.3928C13.8859 20.3972 14.7538 20.3909 15.6216 20.3984C15.7725 20.3997 15.862 20.3521 15.9478 20.23C16.3918 19.5976 16.8438 18.9715 17.2934 18.3428C17.4633 18.1053 17.4673 17.8619 17.3053 17.6127C17.0298 17.1895 16.7543 16.7668 16.4681 16.3273C16.3316 16.7499 16.301 16.7699 15.75 16.7944V16.7931Z" fill="#22B573"/>
</svg>
