<svg width="24" height="24" viewBox="0 0 24 24" fill="none" xmlns="http://www.w3.org/2000/svg">
<path d="M9.66079 0.223036C9.40089 0.274901 9.17219 0.427777 9.02489 0.648103C8.8776 0.868429 8.82375 1.1382 8.87516 1.39819C8.92658 1.65818 9.07906 1.88715 9.29913 2.03483C9.5192 2.1825 9.78888 2.23682 10.049 2.18586C11.3395 1.93612 12.666 1.93612 13.9566 2.18586C14.2113 2.22464 14.4712 2.16366 14.682 2.01561C14.8929 1.86756 15.0385 1.64386 15.0886 1.39111C15.1386 1.13836 15.0892 0.876056 14.9506 0.658834C14.8121 0.441611 14.595 0.286222 14.3448 0.225036C12.7978 -0.0750122 11.2077 -0.0770128 9.66079 0.223036ZM18.6726 2.01779C18.4524 1.88402 18.189 1.84037 17.9374 1.89593C17.6859 1.95148 17.4654 2.10197 17.322 2.31603C17.1786 2.53009 17.1233 2.79122 17.1677 3.04503C17.212 3.29883 17.3526 3.52574 17.5601 3.67848C18.6521 4.41032 19.5902 5.34906 20.3213 6.44164C20.4709 6.65708 20.6992 6.80513 20.9569 6.85391C21.2146 6.90268 21.4812 6.84827 21.6992 6.70241C21.9173 6.55654 22.0693 6.33088 22.1225 6.07403C22.1758 5.81718 22.126 5.54969 21.984 5.32917C21.107 4.01973 19.982 2.89476 18.6726 2.01779ZM6.44345 3.67848C6.55892 3.60834 6.65899 3.51553 6.73761 3.40565C6.81624 3.29578 6.8718 3.17111 6.90093 3.03918C6.93007 2.90725 6.93217 2.77079 6.90713 2.63802C6.88209 2.50525 6.83041 2.37893 6.75521 2.26668C6.68002 2.15443 6.58286 2.05857 6.46961 1.98489C6.35636 1.91121 6.22936 1.86123 6.09627 1.83798C5.96317 1.81472 5.82675 1.81866 5.69522 1.84956C5.56369 1.88047 5.43979 1.93769 5.33098 2.01779C4.02151 2.89472 2.89652 4.0197 2.01959 5.32917C1.94381 5.43828 1.89052 5.56139 1.86282 5.69131C1.83513 5.82123 1.83358 5.95537 1.85829 6.0859C1.88299 6.21642 1.93343 6.34072 2.00669 6.45154C2.07994 6.56236 2.17453 6.65748 2.28494 6.73135C2.39535 6.80522 2.51937 6.85637 2.64975 6.8818C2.78014 6.90723 2.91428 6.90643 3.04436 6.87947C3.17443 6.8525 3.29784 6.79989 3.40736 6.72472C3.51689 6.64955 3.61035 6.55332 3.68229 6.44164C4.41358 5.34982 5.35162 4.40978 6.44345 3.67848ZM23.7787 9.65899C23.7534 9.52992 23.7029 9.4071 23.6301 9.29757C23.5573 9.18804 23.4636 9.09394 23.3544 9.02065C23.2452 8.94736 23.1226 8.89633 22.9936 8.87047C22.8647 8.84462 22.7319 8.84444 22.6029 8.86996C22.4739 8.89547 22.3511 8.94618 22.2417 9.01917C22.1323 9.09217 22.0384 9.18602 21.9653 9.29536C21.8922 9.4047 21.8414 9.52738 21.8157 9.65638C21.7901 9.78538 21.7901 9.91817 21.8159 10.0471C22.066 11.3077 22.066 12.6923 21.8159 13.9528C21.7649 14.2129 21.8192 14.4825 21.9669 14.7026C22.1146 14.9227 22.3436 15.0752 22.6035 15.1266C22.8635 15.178 23.1333 15.1241 23.3536 14.9768C23.574 14.8296 23.7268 14.6008 23.7787 14.3409C24.0788 12.7947 24.0788 11.2052 23.7787 9.65899ZM2.18967 10.0471C2.24114 9.7866 2.187 9.51627 2.03916 9.29563C1.89132 9.075 1.66189 8.92213 1.40133 8.87066C1.27232 8.84517 1.13955 8.84534 1.01061 8.87117C0.881664 8.89699 0.759068 8.94796 0.64982 9.02116C0.429185 9.169 0.276316 9.39843 0.224842 9.65899C-0.0749475 11.2052 -0.0749475 12.7947 0.224842 14.3409C0.250134 14.47 0.300628 14.5928 0.373434 14.7024C0.44624 14.8119 0.539931 14.906 0.649143 14.9793C0.758355 15.0526 0.880947 15.1036 1.0099 15.1295C1.13886 15.1553 1.27165 15.1555 1.40067 15.13C1.5297 15.1045 1.65242 15.0538 1.76183 14.9808C1.87123 14.9078 1.96517 14.8139 2.03827 14.7046C2.11137 14.5952 2.16219 14.4726 2.18782 14.3436C2.21346 14.2146 2.2134 14.0818 2.18766 13.9528C1.93819 12.6629 1.94019 11.3371 2.18967 10.0471ZM21.984 18.6708C22.1177 18.4506 22.1614 18.1872 22.1058 17.9356C22.0503 17.684 21.8998 17.4636 21.6857 17.3202C21.4716 17.1768 21.2105 17.1215 20.9567 17.1659C20.7029 17.2102 20.476 17.3508 20.3233 17.5583C19.5914 18.6503 18.6526 19.5884 17.5601 20.3194C17.3447 20.4691 17.1966 20.6974 17.1478 20.9551C17.0991 21.2128 17.1535 21.4794 17.2993 21.6974C17.4452 21.9154 17.6709 22.0674 17.9277 22.1207C18.1846 22.174 18.452 22.1242 18.6726 21.9821C19.982 21.1052 21.107 19.9802 21.984 18.6708ZM3.68229 17.5583C3.61214 17.4428 3.51933 17.3428 3.40946 17.2641C3.29958 17.1855 3.17492 17.1299 3.04299 17.1008C2.91106 17.0717 2.77459 17.0696 2.64183 17.0946C2.50906 17.1197 2.38274 17.1713 2.27049 17.2465C2.15824 17.3217 2.06238 17.4189 1.9887 17.5321C1.91502 17.6454 1.86504 17.7724 1.84178 17.9055C1.81852 18.0386 1.82247 18.175 1.85337 18.3065C1.88427 18.438 1.9415 18.5619 2.02159 18.6708C2.89794 19.98 4.02223 21.105 5.33098 21.9821C5.43979 22.0622 5.56369 22.1195 5.69522 22.1504C5.82675 22.1813 5.96317 22.1852 6.09627 22.162C6.22936 22.1387 6.35636 22.0887 6.46961 22.015C6.58286 21.9414 6.68002 21.8455 6.75521 21.7333C6.83041 21.621 6.88209 21.4947 6.90713 21.3619C6.93217 21.2291 6.93007 21.0927 6.90093 20.9607C6.8718 20.8288 6.81624 20.7042 6.73761 20.5943C6.65899 20.4844 6.55892 20.3916 6.44345 20.3214C5.35146 19.5895 4.41342 18.6508 3.68229 17.5583ZM10.049 21.8141C9.79424 21.7753 9.53438 21.8363 9.32351 21.9843C9.11264 22.1324 8.96702 22.3561 8.91699 22.6088C8.86696 22.8616 8.91637 23.1239 9.05493 23.3411C9.19349 23.5583 9.41051 23.7137 9.66079 23.7749C11.207 24.075 12.7965 24.075 14.3428 23.7749C14.4768 23.7552 14.6054 23.7085 14.7208 23.6376C14.8363 23.5667 14.9361 23.4731 15.0143 23.3625C15.0924 23.2519 15.1473 23.1265 15.1756 22.994C15.2039 22.8616 15.205 22.7247 15.1788 22.5918C15.1527 22.4589 15.0998 22.3327 15.0234 22.2208C14.9469 22.109 14.8486 22.0138 14.7343 21.9411C14.6201 21.8684 14.4922 21.8196 14.3585 21.7978C14.2248 21.7759 14.0881 21.7815 13.9566 21.8141C12.666 22.0638 11.3395 22.0638 10.049 21.8141ZM16.8038 15.6015C16.8827 15.4964 16.9402 15.3767 16.973 15.2494C17.0057 15.1221 17.013 14.9896 16.9945 14.8594C16.976 14.7293 16.9321 14.6041 16.8652 14.4909C16.7983 14.3777 16.7098 14.2788 16.6047 14.1999C16.4996 14.1209 16.38 14.0634 16.2527 14.0307C16.1253 13.998 15.9928 13.9907 15.8627 14.0091C15.7325 14.0276 15.6073 14.0716 15.4941 14.1385C15.381 14.2053 15.2821 14.2939 15.2031 14.399C14.4728 15.3734 13.3103 15.9996 12.0018 15.9996C11.3804 16.0003 10.7675 15.8559 10.2117 15.578C9.65599 15.3001 9.17274 14.8964 8.80043 14.399C8.64124 14.1867 8.40424 14.0464 8.14158 14.0089C7.87892 13.9713 7.61211 14.0397 7.39985 14.1989C7.18758 14.3581 7.04726 14.5951 7.00973 14.8577C6.97221 15.1204 7.04057 15.3872 7.19976 15.5995C7.75824 16.3458 8.48306 16.9516 9.31666 17.3687C10.1502 17.7859 11.0696 18.0029 12.0018 18.0025C13.9666 18.0025 15.7093 17.0581 16.8038 15.6015ZM10.0009 9.49892C10.0009 9.69598 9.96212 9.89112 9.88671 10.0732C9.81129 10.2552 9.70076 10.4207 9.56141 10.56C9.42207 10.6994 9.25664 10.8099 9.07457 10.8853C8.89251 10.9607 8.69737 10.9995 8.50031 10.9995C8.30324 10.9995 8.10811 10.9607 7.92604 10.8853C7.74398 10.8099 7.57855 10.6994 7.4392 10.56C7.29986 10.4207 7.18932 10.2552 7.11391 10.0732C7.03849 9.89112 6.99968 9.69598 6.99968 9.49892C6.99968 9.10093 7.15778 8.71924 7.4392 8.43781C7.72062 8.15639 8.10232 7.99829 8.50031 7.99829C8.8983 7.99829 9.27999 8.15639 9.56141 8.43781C9.84283 8.71924 10.0009 9.10093 10.0009 9.49892ZM15.5032 10.9995C15.9012 10.9995 16.2829 10.8414 16.5643 10.56C16.8458 10.2786 17.0039 9.89691 17.0039 9.49892C17.0039 9.10093 16.8458 8.71924 16.5643 8.43781C16.2829 8.15639 15.9012 7.99829 15.5032 7.99829C15.1052 7.99829 14.7236 8.15639 14.4421 8.43781C14.1607 8.71924 14.0026 9.10093 14.0026 9.49892C14.0026 9.89691 14.1607 10.2786 14.4421 10.56C14.7236 10.8414 15.1052 10.9995 15.5032 10.9995Z" fill="#55B76B"/>
</svg>
