<svg width="184" height="218" viewBox="0 0 184 218" fill="none" xmlns="http://www.w3.org/2000/svg">
<g filter="url(#filter0_d_20_8941)">
<path d="M113.871 9.24494C130.015 12.5787 144.645 21.5881 154.9 34.5066C181.21 67.6733 167.07 107.136 152.976 126.75C136.394 149.828 95.7392 161.91 81.1258 164.437C66.5247 166.963 64.8172 175.512 64.8172 175.512L46.6677 164.334L28.5181 153.156C28.5181 153.156 35.384 147.781 31.0665 133.608C26.7483 119.423 19.2355 77.6747 32.375 52.4846C43.5428 31.0707 72.4143 0.672807 113.871 9.24494Z" fill="#F3FFB1"/>
<path d="M64.8173 175.512L52.3089 195.818C46.9882 204.458 35.7121 207.19 27.1353 201.902L21.8885 198.672C13.3116 193.384 10.6649 182.103 15.9849 173.452L28.4932 153.145L64.8173 175.512Z" fill="#B1D000"/>
<path d="M20.172 164.053L60.3968 185.922C61.3176 186.423 62.4698 186.082 62.9703 185.161L63.8244 183.59C64.325 182.67 63.9844 181.517 63.0637 181.017L22.8388 159.148C21.9181 158.647 20.7659 158.988 20.2653 159.909L19.4112 161.479C18.9107 162.4 19.2513 163.552 20.172 164.053Z" fill="#5B9739"/>
<path d="M14.8693 174.224L53.4483 195.198C54.3691 195.699 55.5213 195.358 56.0218 194.437L56.8759 192.866C57.3765 191.946 57.0359 190.794 56.1152 190.293L17.5361 169.319C16.6154 168.818 15.4632 169.159 14.9626 170.079L14.1085 171.65C13.6079 172.571 13.9485 173.723 14.8693 174.224Z" fill="#5B9739"/>
<path d="M11.1102 184.675L46.7611 204.057C47.6818 204.558 48.834 204.217 49.3346 203.297L50.1887 201.726C50.6893 200.805 50.3486 199.653 49.4279 199.152L13.777 179.77C12.8563 179.269 11.7041 179.61 11.2035 180.531L10.3494 182.102C9.84884 183.022 10.1894 184.174 11.1102 184.675Z" fill="#5B9739"/>
<path d="M57.6514 121.769C53.2949 110.632 41.59 71.5033 79.6559 45.2259C81.0879 44.2451 83.052 44.7334 83.8087 46.2996C89.0965 57.0931 104.346 96.4273 61.7826 123.112C60.2757 124.06 58.2793 123.428 57.6393 121.77L57.6514 121.769Z" fill="#B1D000"/>
<path d="M46.6677 164.334C46.6677 164.334 56.3387 140.968 59.8291 121.271L81.5278 48.4481" stroke="#5B9739" stroke-width="0.5" stroke-miterlimit="10" stroke-linecap="round"/>
<path d="M84.0492 62.0871C84.0492 62.0871 75.2835 72.9763 72.4923 78.6739" stroke="#5B9739" stroke-width="0.5" stroke-miterlimit="10" stroke-linecap="round"/>
<path d="M65.2141 68.2342C65.2141 68.2342 70.9187 79.9549 68.5925 91.6328" stroke="#5B9739" stroke-width="0.5" stroke-miterlimit="10" stroke-linecap="round"/>
<path d="M84.6761 89.037C84.6761 89.037 71.2041 93.0354 65.2859 103.207" stroke="#5B9739" stroke-width="0.5" stroke-miterlimit="10" stroke-linecap="round"/>
<path d="M58.7148 89.0364C58.7148 89.0364 64.4194 100.757 62.0933 112.435" stroke="#5B9739" stroke-width="0.5" stroke-miterlimit="10" stroke-linecap="round"/>
<path d="M65.1469 129.529C71.1108 123.266 93.207 103.622 122.068 120.567C123.15 121.201 123.425 122.648 122.638 123.617C117.178 130.389 96.0412 152.403 65.539 132.65C64.4649 131.954 64.2601 130.455 65.1462 129.517L65.1469 129.529Z" fill="#B1D000"/>
<path d="M120.521 122.772L66.1312 130.802C66.1312 130.802 60.329 131.184 52.1191 149.913" stroke="#5B9739" stroke-width="0.5" stroke-miterlimit="10" stroke-linecap="round"/>
<path d="M112.352 128.597C112.352 128.597 102.533 126.18 97.9473 126.093" stroke="#5B9739" stroke-width="0.5" stroke-miterlimit="10" stroke-linecap="round"/>
<path d="M102.561 118.114C102.561 118.114 96.6196 125.435 88.2538 127.482" stroke="#5B9739" stroke-width="0.5" stroke-miterlimit="10" stroke-linecap="round"/>
<path d="M94.873 137.24C94.873 137.24 88.1285 129.621 79.656 128.86" stroke="#5B9739" stroke-width="0.5" stroke-miterlimit="10" stroke-linecap="round"/>
<path d="M86.9382 120.221C86.9382 120.221 80.9963 127.543 72.6305 129.59" stroke="#5B9739" stroke-width="0.5" stroke-miterlimit="10" stroke-linecap="round"/>
<path d="M146.624 113.896C143.212 118.946 138.829 124.049 133.275 129.132" stroke="#5B9739" stroke-width="0.5" stroke-miterlimit="10" stroke-linecap="round"/>
<path d="M156.196 91.3765C155.107 97.0164 153.069 102.892 149.721 108.876" stroke="#5B9739" stroke-width="0.5" stroke-miterlimit="10" stroke-linecap="round"/>
<path d="M146.543 45.0929C146.543 45.0929 157.025 56.6101 157.185 80.6376" stroke="#5B9739" stroke-width="0.5" stroke-miterlimit="10" stroke-linecap="round"/>
<path d="M143.458 63.0747C145.187 68.9973 145.918 75.8278 144.833 83.5142" stroke="#5B9739" stroke-width="0.5" stroke-miterlimit="10" stroke-linecap="round"/>
<path d="M124.518 35.8595C124.518 35.8595 132.322 41.2751 138.368 51.4541" stroke="#5B9739" stroke-width="0.5" stroke-miterlimit="10" stroke-linecap="round"/>
</g>
<defs>
<filter id="filter0_d_20_8941" x="4.11865" y="0.75943" width="179.535" height="216.839" filterUnits="userSpaceOnUse" color-interpolation-filters="sRGB">
<feFlood flood-opacity="0" result="BackgroundImageFix"/>
<feColorMatrix in="SourceAlpha" type="matrix" values="0 0 0 0 0 0 0 0 0 0 0 0 0 0 0 0 0 0 127 0" result="hardAlpha"/>
<feOffset dx="4" dy="3"/>
<feGaussianBlur stdDeviation="5"/>
<feComposite in2="hardAlpha" operator="out"/>
<feColorMatrix type="matrix" values="0 0 0 0 0 0 0 0 0 0 0 0 0 0 0 0 0 0 0.25 0"/>
<feBlend mode="normal" in2="BackgroundImageFix" result="effect1_dropShadow_20_8941"/>
<feBlend mode="normal" in="SourceGraphic" in2="effect1_dropShadow_20_8941" result="shape"/>
</filter>
</defs>
</svg>
