<svg width="107" height="153" viewBox="0 0 107 153" fill="none" xmlns="http://www.w3.org/2000/svg">
<g style="mix-blend-mode:overlay">
<path d="M46.9325 96.6544C46.7112 93.8057 45.1531 76.9756 39.079 69.1392C7.01595 51.9811 22.2662 22.6616 22.2662 22.6616C35.7425 29.454 44.0256 40.4817 45.469 50.5237C46.4098 57.0377 45.2847 63.7763 44.367 67.7492C47.8501 73.2732 49.8015 81.0206 50.8743 87.126C51.6432 85.5067 52.4243 83.8792 53.3075 82.2714C58.9567 71.9089 62.1623 63.9956 63.9605 57.9909C42.796 40.106 67.8436 0.655598 67.8436 0.655598C70.9249 5.13826 83.5324 9.20001 83.7262 29.6306C83.8735 44.451 74.5958 53.5389 69.4697 57.4273C67.9665 63.0021 65.3428 70.0434 60.8387 78.9758C62.3822 78.0041 63.9059 77.1345 65.2676 76.4453C77.1641 42.0821 106.985 54.0306 106.985 54.0306C95.037 90.5756 72.8653 84.725 65.9735 81.8762C62.1701 84.0196 57.4731 87.3876 55.8818 88.5512C50.1112 100.415 47.3549 112.46 46.1704 122.84C48.4334 120.832 51.2337 118.675 54.1883 117.087C65.826 89.7994 100.567 100.128 100.567 100.128C89.657 137.107 60.1575 126.449 53.563 123.541C49.905 126.136 46.7847 129.291 45.5206 130.624C44.8953 143.092 46.3339 151.682 46.3757 151.849L41.3089 152.753C41.1612 151.93 39.3206 140.932 40.6343 125.675C40.0377 123.452 37.101 113.248 31.8464 107.413C3.17517 108.223 0.590325 60.065 0.590325 60.065L18.5165 73.7862C31.4736 83.6969 34.2846 96.6825 34.858 103.125C37.9759 106.27 40.3994 110.541 42.1441 114.49C43.1736 108.791 44.7069 102.788 46.8998 96.6587L46.9325 96.6544Z" fill="white"/>
</g>
</svg>
