<svg width="352" height="376" viewBox="0 0 352 376" fill="none" xmlns="http://www.w3.org/2000/svg">
<g opacity="0.4">
<path d="M264.9 107.933C264.9 107.933 305.116 137.382 301.163 167.671C297.209 197.961 232.015 199.238 252.787 206.699C273.56 214.16 306.805 185.693 306.805 185.693C306.805 185.693 318.685 194.285 309.554 236.711C300.406 279.128 223.905 260.019 223.905 260.019C151.7 369.589 113.583 274.258 113.538 262.525C113.492 250.792 173.426 249.176 169.096 242.715C164.784 236.262 131.448 252.836 110.998 249.044C90.5475 245.252 69.3483 188.425 74.1783 172.988C79.0083 157.551 129.61 199.33 129.306 182.275C129.003 165.22 62.2325 179.445 75.6148 120.922C88.9971 62.3993 85.3311 69.2303 110.907 111.718C136.465 154.197 170.272 136.534 148.32 124.274C67.096 78.8967 123.148 8.43127 123.148 8.43127C220.098 43.917 178.29 119.089 191.1 117.999C203.883 116.917 180.325 34.3484 196.192 49.1671C212.06 63.9858 236.434 46.7258 252.69 78.489C268.936 110.269 216.379 161.02 237.43 169.154C258.481 177.288 264.917 107.943 264.917 107.943L264.9 107.933ZM146.336 201.681C130.062 197.871 116.809 203.398 118.85 212.233C120.891 221.069 153.867 219.83 153.867 219.83C165.163 215.309 162.621 205.474 146.336 201.681ZM210.683 138.24C197.205 152.467 196.009 159.795 197.108 166.237C197.108 166.237 215.329 159.67 218.745 146.734C222.171 133.78 224.178 124.022 210.683 138.24ZM252.547 225.501C242.457 229.432 230.833 230.777 236.977 238.429C236.977 238.429 254.471 245.349 261.494 236.288C268.527 227.211 262.638 221.569 252.547 225.501Z" fill="#B7D331"/>
<path d="M299.222 375.329C299.222 375.329 200.787 272.958 131.757 30.4684" stroke="#02604D" stroke-width="0.5" stroke-linecap="round" stroke-linejoin="round"/>
</g>
</svg>
