<svg width="340" height="340" viewBox="0 0 340 340" fill="none" xmlns="http://www.w3.org/2000/svg">
<path d="M254.919 254.919C301.848 207.99 301.848 131.903 254.919 84.9733C207.99 38.044 131.902 38.044 84.973 84.9733C38.0437 131.903 38.0437 207.99 84.973 254.919C131.902 301.849 207.99 301.849 254.919 254.919Z" fill="#55B76B"/>
<path d="M209.909 157.008C209.909 157.008 215.189 159.338 216.549 161.978C217.909 164.628 226.429 159.238 228.229 164.448C230.029 169.658 234.419 164.338 235.519 172.228C236.609 180.118 230.369 183.198 237.499 187.758C244.629 192.318 254.429 202.628 256.759 212.008C259.089 221.388 268.119 242.388 261.589 243.618C255.059 244.838 256.319 236.248 251.089 233.468C245.849 230.688 247.969 227.678 244.799 222.338C241.629 216.998 228.119 221.918 223.659 220.588C219.199 219.258 212.949 224.858 201.309 221.928C189.669 219.008 188.659 212.728 181.309 210.438C173.969 208.148 173.229 203.728 185.069 194.758C196.909 185.788 191.249 170.368 200.019 164.778C208.789 159.188 201.189 159.618 209.909 156.998V157.008Z" fill="#8BD2A0"/>
<path d="M130.259 78.0778C130.259 78.0778 136.629 73.6378 137.069 78.7178C137.509 83.7978 131.699 94.4778 136.399 95.6078C141.099 96.7378 141.419 100.658 140.789 104.958C140.159 109.248 138.379 108.628 132.529 105.098C126.679 101.568 126.439 113.918 123.109 105.358C119.789 96.7978 122.449 90.4078 122.949 87.4778C123.449 84.5478 130.239 78.0778 130.239 78.0778H130.259Z" fill="#8BD2A0"/>
<path d="M202.679 154.498C202.679 154.498 194.099 160.298 192.279 164.428C190.459 168.558 186.489 171.058 185.639 169.398C184.789 167.738 183.309 168.178 185.079 164.608C186.849 161.038 186.459 160.578 188.329 157.448C190.199 154.318 190.309 153.188 194.659 152.728C199.009 152.278 202.109 151.278 202.399 152.878L202.679 154.478V154.498Z" fill="#8BD2A0"/>
<path d="M206.809 139.528C206.809 139.528 203.879 143.268 202.479 142.858C201.079 142.438 198.579 141.628 198.699 143.368C198.819 145.098 201.409 146.638 202.519 147.028C203.629 147.418 207.629 150.668 208.159 148.128C208.679 145.598 212.829 144.258 211.589 142.138C210.349 140.018 207.719 139.048 206.809 139.538V139.528Z" fill="#8BD2A0"/>
<path d="M151.929 220.858C151.929 220.858 147.119 224.618 146.829 229.048C146.539 233.478 141.889 235.568 145.859 240.638C149.839 245.708 153.029 255.398 154.769 252.188C156.519 248.978 153.089 246.978 154.169 240.578C155.249 234.178 153.949 235.258 155.669 230.968C157.399 226.678 158.469 222.928 156.389 222.008C154.309 221.088 151.919 220.868 151.919 220.868L151.929 220.858Z" fill="#8BD2A0"/>
<path d="M162.049 232.288C161.129 235.688 161.349 243.658 163.079 244.428C164.809 245.188 170.959 245.168 173.069 243.198C175.179 241.228 179.639 237.308 174.999 235.438C170.359 233.558 166.299 234.498 164.659 231.458C163.019 228.418 162.049 232.298 162.049 232.298V232.288Z" fill="#8BD2A0"/>
<path d="M245.009 168.478C243.919 165.718 239.719 167.318 240.639 170.138C241.399 172.478 241.899 175.538 241.009 178.648C239.139 185.168 250.139 191.748 252.589 194.698C255.039 197.648 259.659 190.758 254.099 186.368C248.539 181.978 246.149 183.008 246.189 175.898C246.199 173.128 245.799 170.488 245.009 168.488V168.478Z" fill="#8BD2A0"/>
<path d="M243.289 161.968C242.229 162.198 241.139 162.248 240.069 162.058C238.649 161.808 236.849 161.338 235.499 160.498C232.899 158.878 239.729 157.628 242.409 155.558C245.099 153.488 249.719 153.748 250.979 157.738C252.019 161.018 245.709 161.458 243.289 161.978V161.968Z" fill="#8BD2A0"/>
<path d="M101.149 162.098C101.149 162.098 105.009 169.918 108.819 170.348C112.629 170.778 113.079 172.728 114.939 171.538C116.799 170.348 120.299 168.978 115.909 164.368C111.519 159.758 115.259 155.158 108.329 157.008C101.399 158.858 101.979 156.978 101.159 162.098H101.149Z" fill="#8BD2A0"/>
<path d="M244.039 249.928C244.039 249.928 245.489 245.608 243.849 242.738C242.209 239.868 244.249 236.648 239.689 235.128C235.129 233.608 229.169 228.878 229.399 231.598C229.629 234.308 232.589 234.158 234.539 238.588C236.489 243.018 236.859 241.808 237.549 245.188C238.239 248.568 239.109 251.348 240.779 251.058C242.449 250.778 244.029 249.938 244.029 249.938L244.039 249.928Z" fill="#8BD2A0"/>
<path d="M49.8891 164.798C55.0391 159.398 61.8891 153.778 67.1091 155.548C76.4291 158.708 87.5091 155.398 91.7991 158.548C96.0891 161.698 91.0591 171.308 87.0491 175.058C83.0291 178.808 82.8991 182.688 88.8991 179.808C94.8991 176.938 96.7691 171.608 102.089 173.488C107.409 175.358 108.259 180.938 112.229 180.168C116.199 179.398 122.679 178.628 123.669 180.328C124.659 182.028 126.989 188.888 112.989 189.178C98.9891 189.468 98.2691 194.668 99.1691 197.278C100.069 199.878 97.8391 201.738 94.0291 203.208C90.2291 204.688 89.7891 214.268 83.8291 216.688C77.8791 219.108 81.2791 226.758 88.9791 220.378C96.6791 213.998 108.079 212.088 108.759 207.338C109.429 202.588 107.009 196.638 116.189 194.058C125.369 191.478 130.699 188.318 136.799 191.638C142.899 194.958 147.969 199.558 150.379 208.028C152.789 216.498 143.089 214.908 140.959 225.468C138.819 236.038 132.559 232.008 139.839 242.318C147.119 252.618 155.079 255.658 154.269 266.808C153.449 277.958 163.939 278.478 150.129 284.058C136.319 289.638 136.309 277.498 125.539 275.108C114.769 272.728 121.709 269.478 113.969 264.178C107.079 259.458 105.019 264.968 95.1791 264.068C88.7891 258.988 82.8291 253.178 77.4191 246.638C57.6391 222.758 48.6491 193.508 49.8891 164.798Z" fill="#8BD2A0"/>
<path d="M101.749 84.1177C108.609 81.7777 108.889 86.1577 108.039 92.7277C107.199 99.2877 108.669 105.618 117.409 110.098C126.149 114.578 126.009 120.978 127.649 125.488C129.289 129.998 129.489 132.758 117.779 125.708C106.069 118.658 107.999 122.498 98.5792 125.288C89.1592 128.068 83.9492 129.878 82.2691 123.298C80.5891 116.728 82.9892 115.578 76.7192 114.078C71.5792 112.848 67.3692 116.458 64.3792 112.488C70.4592 101.308 78.4191 90.9377 88.2091 81.8677C93.0091 83.7377 98.4591 85.2377 101.749 84.1177Z" fill="#8BD2A0"/>
<path d="M134.899 54.9678C134.609 57.6578 133.349 60.4678 130.089 62.7178C127.099 64.7778 125.279 67.1078 123.989 69.3378C121.379 73.8578 120.959 77.9778 117.359 78.7078C111.989 79.8078 109.069 74.2678 99.5691 75.4378C98.0591 75.6278 96.7591 75.6278 95.6191 75.5178C107.669 66.0278 120.999 59.2078 134.889 54.9778L134.899 54.9678Z" fill="#8BD2A0"/>
<path d="M156.049 57.128C149.509 63.388 152.549 67.568 147.219 70.728C141.879 73.898 133.259 70.568 136.699 65.618C140.139 60.668 149.779 55.618 146.439 52.098C146.439 52.098 146.429 52.078 146.419 52.068C150.839 51.188 155.299 50.568 159.769 50.188C159.349 52.488 158.309 54.948 156.049 57.108V57.128Z" fill="#8BD2A0"/>
<path d="M149.609 98.908C157.489 100.338 166.629 110.348 170.899 106.398C175.159 102.448 168.319 99.738 168.999 92.478C169.679 85.208 152.159 88.838 146.579 89.688C140.999 90.538 136.429 88.048 145.409 80.188C154.389 72.328 153.369 68.568 163.089 62.598C167.829 59.698 169.299 54.418 169.569 49.768C180.509 49.738 191.429 51.208 201.999 54.118C203.369 56.998 205.309 60.468 207.899 63.578C213.659 70.528 214.019 76.518 220.729 83.108C227.439 89.688 241.839 112.118 237.369 113.298C232.909 114.488 229.439 100.188 223.649 100.788C217.869 101.388 238.019 123.448 237.869 127.548C237.189 145.518 219.349 149.178 218.629 154.378C217.909 159.578 208.959 157.368 215.429 146.978C221.899 136.588 209.799 138.658 217.039 132.238C224.279 125.818 212.199 120.328 209.259 124.868C206.319 129.398 198.099 126.568 200.279 132.728C202.449 138.888 201.949 141.818 193.959 134.198C185.969 126.578 187.759 136.828 178.359 129.528C168.959 122.238 168.969 134.378 162.189 138.318C155.409 142.268 151.619 136.178 158.709 129.058C165.789 121.928 161.669 119.488 158.019 124.178C154.369 128.878 150.049 138.318 148.009 128.278" fill="#8BD2A0"/>
<path d="M163.089 62.5981C167.829 59.6981 169.299 54.4181 169.569 49.7681" stroke="white" stroke-width="0.38" stroke-miterlimit="10" stroke-linecap="round"/>
<path d="M170.899 106.398C175.159 102.448 168.319 99.738 168.999 92.478C169.679 85.208 152.159 88.838 146.579 89.688C140.999 90.538 136.429 88.048 145.409 80.188" stroke="white" stroke-width="0.38" stroke-miterlimit="10" stroke-linecap="round"/>
<path d="M193.949 134.218C185.959 126.598 187.749 136.848 178.349 129.548C168.949 122.258 168.959 134.398 162.179 138.338C155.399 142.288 151.609 136.198 158.699 129.078C165.779 121.948 161.659 119.508 158.009 124.198C154.359 128.898 150.039 138.338 147.999 128.298" stroke="white" stroke-width="0.38" stroke-miterlimit="10" stroke-linecap="round"/>
<path d="M218.629 154.398C217.909 159.598 208.959 157.388 215.429 146.998C221.899 136.608 209.799 138.678 217.039 132.258C224.279 125.838 212.199 120.348 209.259 124.888C206.319 129.418 198.099 126.588 200.279 132.748" stroke="white" stroke-width="0.38" stroke-miterlimit="10" stroke-linecap="round"/>
<path d="M223.649 100.808C217.869 101.408 238.019 123.468 237.869 127.568" stroke="white" stroke-width="0.38" stroke-miterlimit="10" stroke-linecap="round"/>
<path d="M207.899 63.5977C213.659 70.5477 214.019 76.5377 220.729 83.1277C227.439 89.7077 241.839 112.138 237.369 113.318" stroke="white" stroke-width="0.38" stroke-miterlimit="10" stroke-linecap="round"/>
<path d="M130.259 78.0778C130.259 78.0778 136.629 73.6378 137.069 78.7178C137.509 83.7978 131.699 94.4778 136.399 95.6078C141.099 96.7378 141.419 100.658 140.789 104.958C140.159 109.248 138.379 108.628 132.529 105.098C126.679 101.568 126.439 113.918 123.109 105.358C119.789 96.7978 122.449 90.4078 122.949 87.4778C123.449 84.5478 130.239 78.0778 130.239 78.0778H130.259Z" stroke="white" stroke-width="0.38" stroke-miterlimit="10" stroke-linecap="round"/>
<path d="M98.5791 125.278C89.1591 128.058 83.9491 129.868 82.2691 123.288C80.5891 116.718 82.9891 115.568 76.7191 114.068" stroke="white" stroke-width="0.38" stroke-miterlimit="10" stroke-linecap="round"/>
<path d="M117.409 110.088C126.149 114.568 126.009 120.968 127.649 125.478C129.289 129.988 129.489 132.748 117.779 125.698" stroke="white" stroke-width="0.38" stroke-miterlimit="10" stroke-linecap="round"/>
<path d="M88.2091 81.8579C93.0091 83.7279 98.4591 85.2279 101.749 84.1079C108.609 81.7679 108.889 86.1479 108.039 92.7179" stroke="white" stroke-width="0.38" stroke-miterlimit="10" stroke-linecap="round"/>
<path d="M125.579 66.9678C121.439 72.3278 121.599 77.8378 117.379 78.7078C112.009 79.8078 109.089 74.2678 99.5891 75.4378" stroke="white" stroke-width="0.38" stroke-miterlimit="10" stroke-linecap="round"/>
<path d="M134.899 54.9678C134.609 57.6578 133.349 60.4678 130.089 62.7178" stroke="white" stroke-width="0.38" stroke-miterlimit="10" stroke-linecap="round"/>
<path d="M136.699 65.6281C140.139 60.6781 149.779 55.6281 146.439 52.1081C146.439 52.1081 146.429 52.0881 146.419 52.0781" stroke="white" stroke-width="0.38" stroke-miterlimit="10" stroke-linecap="round"/>
<path d="M156.049 57.1279C149.509 63.3879 152.549 67.5679 147.219 70.7279" stroke="white" stroke-width="0.38" stroke-miterlimit="10" stroke-linecap="round"/>
<path d="M110.669 262.518C106.099 261.208 103.259 264.798 95.1791 264.058" stroke="white" stroke-width="0.38" stroke-miterlimit="10" stroke-linecap="round"/>
<path d="M108.759 207.328C109.429 202.578 107.009 196.628 116.189 194.048C125.369 191.468 130.699 188.308 136.799 191.628" stroke="white" stroke-width="0.38" stroke-miterlimit="10" stroke-linecap="round"/>
<path d="M83.8291 216.668C77.8791 219.088 81.2791 226.738 88.9791 220.358" stroke="white" stroke-width="0.38" stroke-miterlimit="10" stroke-linecap="round"/>
<path d="M112.219 180.158C116.189 179.388 122.669 178.618 123.659 180.318C124.649 182.018 126.979 188.878 112.979 189.168C98.9791 189.458 98.2591 194.658 99.1591 197.268" stroke="white" stroke-width="0.38" stroke-miterlimit="10" stroke-linecap="round"/>
<path d="M91.7991 158.548C96.0891 161.698 91.0591 171.308 87.0491 175.058C83.0291 178.808 82.8991 182.688 88.8991 179.808C94.8991 176.938 96.7691 171.608 102.089 173.488" stroke="white" stroke-width="0.38" stroke-miterlimit="10" stroke-linecap="round"/>
<path d="M49.8892 164.798C55.0392 159.398 61.8892 153.778 67.1092 155.548" stroke="white" stroke-width="0.38" stroke-miterlimit="10" stroke-linecap="round"/>
</svg>
