<svg width="175" height="168" viewBox="0 0 175 168" fill="none" xmlns="http://www.w3.org/2000/svg">
<path d="M51.511 18.4295L40.3356 6.55566C39.5921 5.76708 38.2403 6.33035 38.3079 7.41184L40.4934 51.8429C40.5159 52.3837 40.8989 52.8343 41.4397 52.947L86.5467 61.9819C87.6282 62.2072 88.3717 60.9455 87.6958 60.0893L78.1652 48.238C77.8272 47.8099 77.8047 47.2016 78.1652 46.7735C81.9504 42.087 103.648 16.1764 120.433 12.4813C121.605 12.2335 121.695 10.6112 120.546 10.2507L91.098 0.967975C84.6316 -1.05981 77.6019 0.134328 72.1719 4.21244L53.0657 18.5647C52.5925 18.9252 51.9166 18.8576 51.511 18.4295Z" fill="#5B9739"/>
<path d="M105.382 29.4696C105.135 28.3881 105.473 27.2841 106.306 26.5406C110.61 22.7328 124.534 11.7152 135.912 17.1677C147.065 22.5075 148.462 41.9518 148.597 48.8688C148.619 50.3108 147.628 51.55 146.209 51.8429L115.093 58.5346C113.471 58.8725 111.871 57.8586 111.511 56.2589L105.405 29.4696H105.382Z" fill="#5B9739"/>
<path d="M158.06 93.0073L174.057 89.7628C175.139 89.5375 175.342 88.118 174.395 87.5773L135.484 66.0377C135.011 65.7673 134.425 65.88 134.065 66.263L102.634 99.8567C101.89 100.668 102.544 101.952 103.648 101.817L118.744 99.9468C119.284 99.8792 119.803 100.172 119.983 100.713C121.966 106.413 132.6 138.475 126.877 154.697C126.472 155.846 127.801 156.747 128.725 155.959L152.09 135.839C157.227 131.423 159.908 124.799 159.299 118.062L157.159 94.2465C157.114 93.6607 157.52 93.0974 158.105 92.9847L158.06 93.0073Z" fill="#5B9739"/>
<path d="M120.298 132.999C121.357 133.36 122.101 134.239 122.304 135.343C123.272 140.998 125.323 158.64 114.688 165.444C104.279 172.113 87.02 163.056 81.0493 159.541C79.8101 158.797 79.2919 157.31 79.7876 155.936L90.4898 125.947C91.0531 124.393 92.7429 123.559 94.3201 124.1L120.298 132.999Z" fill="#5B9739"/>
<path d="M42.431 145.459L37.5418 161.028C37.2038 162.064 38.3529 162.966 39.2767 162.38L76.9485 138.745C77.3991 138.452 77.6019 137.889 77.4442 137.393L63.2722 93.6378C62.9342 92.6014 61.4697 92.5338 61.0642 93.5702L55.3863 107.697C55.1836 108.215 54.6654 108.508 54.1246 108.418C48.199 107.404 14.9658 101.163 3.54255 88.3205C2.73143 87.4192 1.28945 88.1402 1.53729 89.3344L7.82343 119.503C9.19782 126.127 13.704 131.693 19.9 134.419L41.7776 144.085C42.3184 144.333 42.6113 144.941 42.431 145.504V145.459Z" fill="#5B9739"/>
<path d="M25.6905 93.052C24.8568 93.7955 23.7303 94.0434 22.6713 93.6603C17.2639 91.7903 0.838808 85.031 0.0276929 72.4362C-0.760892 60.1117 15.5065 49.387 21.4772 45.8721C22.7164 45.1511 24.2936 45.4215 25.2399 46.503L46.2838 70.3858C47.3878 71.625 47.2752 73.5176 46.036 74.6217L25.668 93.052H25.6905Z" fill="#5B9739"/>
</svg>
