<svg width="179" height="146" viewBox="0 0 179 146" fill="none" xmlns="http://www.w3.org/2000/svg">
<path d="M131.703 49.4156L139.129 1.38015C139.385 -0.252989 141.497 -0.515711 142.045 1.01802C145.892 11.7612 152.414 36.8618 136.504 52.1849L131.703 49.4156Z" fill="#B7D331"/>
<path d="M128.382 60.6416L83.1694 78.67C81.6331 79.2807 80.3316 77.5978 81.3771 76.3481C88.6885 67.5789 107.024 49.2097 128.332 55.1031L128.382 60.6416Z" fill="#B7D331"/>
<path d="M140.587 57.1694L178.374 87.8156C179.662 88.8594 178.822 90.812 177.215 90.5138C165.985 88.4049 140.985 81.3612 135.765 59.9174L140.587 57.1765V57.1694Z" fill="#B7D331"/>
<path d="M136.515 56.9776L128.724 57.6978L136.728 143.998L144.518 143.278L136.515 56.9776Z" fill="#B7D331"/>
<path d="M139.983 59.7788C141.547 55.4521 139.303 50.6784 134.969 49.1165C130.635 47.5545 125.853 49.7957 124.289 54.1224C122.724 58.4491 124.969 63.2228 129.303 64.7847C133.637 66.3467 138.418 64.1055 139.983 59.7788Z" fill="#AABC02"/>
<path d="M137.948 59.1792C136.718 62.3815 133.112 63.9863 129.904 62.7579C126.696 61.5295 125.089 57.9295 126.319 54.7271C127.55 51.5247 131.156 49.92 134.363 51.1484C137.571 52.3768 139.178 55.9768 137.948 59.1792Z" fill="white"/>
<path opacity="0.25" d="M109.122 65.8818L96.832 70.9375" stroke="#89960B" stroke-width="0.67" stroke-miterlimit="10" stroke-linecap="round"/>
<path opacity="0.25" d="M121.924 60.6206L113.752 63.9792" stroke="#89960B" stroke-width="0.67" stroke-miterlimit="10" stroke-linecap="round"/>
<path opacity="0.25" d="M148.46 67.1175L142.543 62.4595" stroke="#89960B" stroke-width="0.67" stroke-miterlimit="10" stroke-linecap="round"/>
<path opacity="0.25" d="M161.867 77.6761L151.426 69.4536" stroke="#89960B" stroke-width="0.67" stroke-miterlimit="10" stroke-linecap="round"/>
<path opacity="0.25" d="M172.734 86.2394L165.8 80.772" stroke="#89960B" stroke-width="0.67" stroke-miterlimit="10" stroke-linecap="round"/>
<path opacity="0.25" d="M136.696 30.0596L134.648 43.1744" stroke="#89960B" stroke-width="0.67" stroke-miterlimit="10" stroke-linecap="round"/>
<path opacity="0.25" d="M138.83 16.4053L137.464 25.1248" stroke="#89960B" stroke-width="0.67" stroke-miterlimit="10" stroke-linecap="round"/>
<path opacity="0.25" d="M127.642 55.2593C128.61 52.7528 131.426 51.496 133.937 52.4617" stroke="#89960B" stroke-width="0.52" stroke-miterlimit="10" stroke-linecap="round"/>
<path opacity="0.25" d="M136.739 58.7461C135.772 61.2526 132.955 62.5094 130.445 61.5437" stroke="#89960B" stroke-width="0.52" stroke-miterlimit="10" stroke-linecap="round"/>
<path d="M38.3796 74.4048L44.0001 38.0447C44.1939 36.8085 45.7928 36.6096 46.2074 37.7706C49.1199 45.9026 54.0566 64.9022 42.0136 76.5009L38.3796 74.4048Z" fill="#B7D331"/>
<path d="M35.8655 82.9022L1.64208 96.5487C0.479227 97.0109 -0.505967 95.7371 0.285419 94.7911C5.81974 88.1533 19.6986 74.2489 35.8278 78.7099L35.8655 82.9022Z" fill="#B7D331"/>
<path d="M45.1037 80.2739L73.7066 103.471C74.681 104.261 74.0458 105.739 72.8291 105.514C64.3284 103.917 45.4052 98.5856 41.4536 82.3539L45.1037 80.2793V80.2739Z" fill="#B7D331"/>
<path d="M42.0212 80.1287L36.1245 80.6738L42.1829 145.998L48.0797 145.453L42.0212 80.1287Z" fill="#B7D331"/>
<path d="M44.6467 82.249C45.8309 78.974 44.1317 75.3606 40.8512 74.1783C37.5708 72.996 33.9515 74.6924 32.7672 77.9675C31.583 81.2425 33.2822 84.8559 36.5627 86.0382C39.8431 87.2205 43.4624 85.5241 44.6467 82.249Z" fill="#AABC02"/>
<path d="M43.1064 81.7953C42.175 84.2193 39.4456 85.434 37.0176 84.5041C34.5896 83.5743 33.3729 80.8493 34.3042 78.4253C35.2356 76.0013 37.9651 74.7866 40.3931 75.7165C42.8211 76.6463 44.0378 79.3713 43.1064 81.7953Z" fill="white"/>
<path opacity="0.25" d="M21.2867 86.8687L11.9839 90.6955" stroke="#89960B" stroke-width="0.67" stroke-miterlimit="10" stroke-linecap="round"/>
<path opacity="0.25" d="M30.9771 82.8862L24.7914 85.4285" stroke="#89960B" stroke-width="0.67" stroke-miterlimit="10" stroke-linecap="round"/>
<path opacity="0.25" d="M51.0632 87.8039L46.5841 84.2781" stroke="#89960B" stroke-width="0.67" stroke-miterlimit="10" stroke-linecap="round"/>
<path opacity="0.25" d="M61.2114 95.7965L53.3083 89.5725" stroke="#89960B" stroke-width="0.67" stroke-miterlimit="10" stroke-linecap="round"/>
<path opacity="0.25" d="M69.4375 102.278L64.1885 98.1396" stroke="#89960B" stroke-width="0.67" stroke-miterlimit="10" stroke-linecap="round"/>
<path opacity="0.25" d="M42.1589 59.7534L40.6084 69.6806" stroke="#89960B" stroke-width="0.67" stroke-miterlimit="10" stroke-linecap="round"/>
<path opacity="0.25" d="M43.774 49.4177L42.7404 56.0179" stroke="#89960B" stroke-width="0.67" stroke-miterlimit="10" stroke-linecap="round"/>
<path opacity="0.25" d="M35.3057 78.8281C36.0378 76.9308 38.1697 75.9795 40.0701 76.7105" stroke="#89960B" stroke-width="0.52" stroke-miterlimit="10" stroke-linecap="round"/>
<path opacity="0.25" d="M42.1911 81.4675C41.4589 83.3648 39.327 84.3161 37.4266 83.5852" stroke="#89960B" stroke-width="0.52" stroke-miterlimit="10" stroke-linecap="round"/>
</svg>
