<svg width="25" height="24" viewBox="0 0 25 24" fill="none" xmlns="http://www.w3.org/2000/svg">
<path d="M0 11.8614C0.0680342 11.4809 0.0974317 11.0878 0.211662 10.7216C0.453561 9.9438 0.730738 9.17611 1.01127 8.41093C1.29685 7.6298 1.60342 6.85706 1.9016 6.08013C1.92932 6.0079 1.96039 5.93734 1.99651 5.85083C2.26025 5.95162 2.50971 6.04653 2.78016 6.14984C2.74909 6.24224 2.72557 6.32287 2.69617 6.40098C2.20649 7.69783 1.69834 8.98712 1.23133 10.2915C0.670263 11.8588 0.753416 13.4211 1.3674 14.9607C1.4052 15.0556 1.44216 15.1514 1.48751 15.2681C1.22798 15.3765 0.975997 15.4823 0.70554 15.5957C0.418284 14.9288 0.198223 14.2644 0.0965918 13.5639C0.0646745 13.3463 0.0319173 13.128 0 12.9096C0 12.5602 0 12.2108 0 11.8614Z" fill="black"/>
<path d="M24.3941 21.8683H23.5516V18.0088H24.3941V21.8683Z" fill="black"/>
<path d="M24.3941 23.5834H23.5365C23.5365 23.4314 23.5365 23.2928 23.5365 23.1534C23.5365 23.0139 23.5365 22.8879 23.5365 22.725H24.3941V23.5826V23.5834Z" fill="black"/>
<path d="M9.39295 17.3276V18.4128C9.76168 18.5631 9.81544 18.6429 9.81544 19.0377C9.81544 20.07 9.81544 21.1022 9.81544 22.1345C9.81544 22.5192 9.7558 22.6057 9.38539 22.7468V24H8.53623V22.7393H4.25259V23.9958H3.39167V22.7401C3.00194 22.6704 2.9465 22.3999 2.94986 22.0665C2.96078 21.0745 2.95406 20.0817 2.95406 19.0889C2.95406 18.5909 3.03386 18.4951 3.53529 18.4136C3.41014 18.1104 3.28583 17.8123 3.16321 17.5124C2.82303 16.6842 2.46439 15.8628 2.14773 15.0254C1.47075 13.2321 1.52367 11.438 2.20149 9.65487C3.00698 7.53657 3.81583 5.41911 4.62468 3.30165C4.98669 2.35253 5.73423 1.97708 6.71106 2.23494C6.79338 2.25678 6.92104 2.2089 6.9916 2.15011C7.67194 1.58148 8.4094 1.10944 9.22413 0.757508C11.0636 -0.0387444 12.9585 -0.20673 14.9054 0.251031C16.2795 0.574403 17.5083 1.19679 18.5826 2.11399C18.7296 2.23914 18.8505 2.27106 19.0437 2.21226C19.7745 1.988 20.5758 2.32397 20.8756 3.02615C21.2771 3.96519 21.6257 4.92775 21.9894 5.88275C22.5143 7.26023 23.0544 8.63267 23.5474 10.0211C24.1858 11.8194 24.0808 13.6067 23.3593 15.3639C22.9444 16.3751 22.5227 17.383 22.0943 18.4162C22.1607 18.4254 22.2103 18.4321 22.2598 18.4388C22.5278 18.4783 22.6739 18.6261 22.6747 18.9025C22.6798 20.0221 22.6781 21.1417 22.6756 22.2614C22.6756 22.5343 22.5118 22.678 22.2497 22.7376V23.9941H21.4022V22.7451H17.1111V23.9983H16.261V22.7401C15.8755 22.6704 15.8108 22.4125 15.8142 22.0841C15.8243 21.0762 15.8243 20.0675 15.8142 19.0587C15.8108 18.7362 15.8881 18.4934 16.2409 18.4254V17.3301C13.9605 18.2213 11.686 18.2272 9.39211 17.3276H9.39295ZM6.45656 7.05865C7.65178 7.19556 8.1003 7.70119 8.1003 8.87289C8.1003 9.80186 8.10786 10.7308 8.09694 11.6598C8.0919 12.1217 8.17422 12.5551 8.37412 12.9726C8.85708 13.9813 9.17709 15.0396 9.29888 16.1542C9.31484 16.2979 9.3686 16.3877 9.5181 16.4507C11.7229 17.3872 13.9235 17.3864 16.1258 16.4448C16.261 16.3869 16.319 16.3071 16.3341 16.1668C16.4559 15.0363 16.7843 13.9645 17.274 12.9407C17.463 12.5459 17.5403 12.1343 17.5361 11.6967C17.5268 10.6804 17.531 9.66411 17.5344 8.64779C17.5361 7.99265 17.8166 7.49373 18.4171 7.21824C18.6397 7.1166 18.8984 7.09561 19.1588 7.03345C19.1361 6.97298 19.1118 6.8999 19.0824 6.82935C18.7481 6.04066 18.4096 5.25448 18.082 4.46411C18.0039 4.27597 17.914 4.07018 17.9199 3.87532C17.9291 3.52927 18.0081 3.1849 18.0635 2.80189C14.7609 -0.100059 9.97502 0.512249 7.50647 2.88589C7.75509 3.31341 7.81305 3.76445 7.64422 4.23313C7.55855 4.47167 7.45356 4.70349 7.35529 4.93699C7.05963 5.63665 6.76314 6.33547 6.45656 7.05949V7.05865ZM17.1237 18.4237C17.1581 18.4279 17.1883 18.4355 17.2177 18.4355C18.4801 18.4355 19.7426 18.433 21.005 18.4405C21.1528 18.4405 21.1923 18.3632 21.2359 18.2557C21.6903 17.1571 22.1531 16.0618 22.5991 14.9599C23.2047 13.4631 23.319 11.9269 22.7688 10.4024C21.9373 8.09932 21.0444 5.81808 20.1743 3.52927C20.0029 3.07739 19.5897 2.88925 19.1848 3.06059C18.7901 3.2269 18.6574 3.62502 18.8497 4.0811C19.3217 5.19821 19.7921 6.31615 20.27 7.43074C20.4515 7.85322 20.538 8.28914 20.5363 8.74858C20.5321 10.3125 20.5346 11.8773 20.5346 13.4413V13.7058H19.677C19.677 13.6059 19.677 13.5202 19.677 13.4337C19.677 11.8538 19.6754 10.2731 19.6787 8.69315C19.6787 8.44033 19.6216 8.21691 19.4099 8.06488C19.2092 7.92042 18.9824 7.89438 18.7565 8.00357C18.502 8.12704 18.3911 8.34374 18.3911 8.62176C18.3911 9.66159 18.3861 10.7023 18.3928 11.7421C18.3961 12.2754 18.3038 12.7836 18.0652 13.2624C17.2597 14.8834 17.0103 16.6078 17.1228 18.4237H17.1237ZM8.52951 18.4363C8.52951 18.1205 8.52615 17.8425 8.52951 17.5645C8.54883 16.0963 8.25653 14.6944 7.61566 13.3715C7.35025 12.8239 7.23098 12.2544 7.23854 11.6463C7.25198 10.6535 7.24442 9.66075 7.24106 8.66795C7.23938 8.20431 6.9328 7.90614 6.5162 7.95233C6.17099 7.99013 5.95765 8.26563 5.95681 8.68643C5.95513 10.2747 5.95681 11.863 5.95681 13.4513C5.95681 13.5353 5.95681 13.6193 5.95681 13.7H5.09924C5.09924 13.5941 5.09924 13.5068 5.09924 13.4203C5.09924 11.9034 5.10512 10.3864 5.09588 8.86953C5.09252 8.32778 5.19331 7.81962 5.41001 7.32155C5.88625 6.23216 6.34149 5.13353 6.80681 4.03911C6.92104 3.77033 6.92104 3.51163 6.73374 3.27645C6.5624 3.06059 6.32973 2.9682 6.05844 3.00768C5.73423 3.05555 5.55196 3.26973 5.43941 3.56623C4.62384 5.7156 3.80323 7.86246 2.98682 10.0118C2.39131 11.5808 2.35015 13.1616 2.9549 14.7314C3.41686 15.9291 3.93174 17.1067 4.41386 18.2969C4.47097 18.4363 4.55833 18.4372 4.6734 18.4363C5.88793 18.4346 7.10331 18.4355 8.31785 18.4355C8.37916 18.4355 8.44047 18.4355 8.52783 18.4355L8.52951 18.4363ZM8.94107 21.8565V19.3132H3.82507V21.8565H8.94107ZM21.8105 19.3115H16.6953V21.854H21.8105V19.3115Z" fill="black"/>
<path d="M2.47695 4.56323C2.74489 4.66486 2.99351 4.75978 3.27321 4.86561C3.19089 5.08567 3.11278 5.29481 3.02543 5.52747C2.75749 5.42584 2.50299 5.32841 2.22498 5.22342C2.31065 4.99915 2.39044 4.78917 2.47695 4.56323Z" fill="black"/>
<path d="M8.94108 21.8565H3.82507V19.3132H8.94108V21.8565Z" fill="#22B573"/>
<path d="M21.8105 19.3115V21.854H16.6953V19.3115H21.8105Z" fill="#22B573"/>
<path d="M12.7241 12.4896V13.6798C12.4553 13.7033 12.1916 13.726 11.8834 13.7529C11.8733 13.4665 11.8338 13.191 11.8615 12.923C11.9035 12.519 11.8061 12.2939 11.3853 12.1159C10.5143 11.7463 10.1245 10.9677 9.96328 10.0782C9.61891 8.1766 10.5537 6.63953 12.0774 5.76852C13.4255 4.99831 14.8626 5.00923 16.3182 5.42667C16.6533 5.52242 16.7726 5.80296 16.587 6.09273C16.2023 6.69328 16.1225 7.35851 16.0897 8.04725C16.057 8.73515 16.0511 9.43397 15.9159 10.1042C15.6059 11.6455 14.4871 12.5669 12.8711 12.4888C12.8325 12.4871 12.793 12.4888 12.7241 12.4888V12.4896ZM15.6051 6.10869C15.3674 6.07594 15.165 6.0373 14.9609 6.0205C13.8429 5.92727 12.8165 6.15489 11.9405 6.89738C10.8696 7.80535 10.4899 9.06356 10.92 10.3386C11.0863 10.8324 11.371 11.2348 11.9178 11.4246C12.0681 10.0748 12.3898 8.79142 12.9425 7.54917C13.2062 7.66592 13.4557 7.77595 13.7186 7.8927C13.2071 9.09716 12.8787 10.3209 12.7678 11.6136C13.2583 11.6581 13.7127 11.6111 14.1318 11.3599C14.7903 10.966 15.0608 10.3344 15.144 9.61791C15.2053 9.09212 15.2078 8.55792 15.2204 8.02709C15.2364 7.3795 15.3598 6.7546 15.6034 6.10869H15.6051Z" fill="#22B573"/>
<path d="M16.004 2.44576C15.8796 2.70109 15.7629 2.94215 15.6302 3.21429C14.0679 2.49279 12.4628 2.37604 10.809 2.8842C10.7334 2.65658 10.6654 2.45583 10.5999 2.25425C10.5831 2.20302 10.5747 2.14926 10.5579 2.07283C12.4267 1.4916 14.23 1.62179 16.0048 2.44492L16.004 2.44576Z" fill="black"/>
<path d="M9.19548 3.67626C9.0317 3.43604 8.88051 3.2143 8.71252 2.96736C9.0149 2.79097 9.30467 2.62131 9.62217 2.43568C9.75403 2.70614 9.87415 2.9514 9.99845 3.2059C9.73052 3.36296 9.4735 3.51331 9.19548 3.67626Z" fill="black"/>
</svg>
