<svg width="24" height="24" viewBox="0 0 24 24" fill="none" xmlns="http://www.w3.org/2000/svg">
<path d="M8.48234 24C8.08109 23.9531 7.67922 23.9131 7.27922 23.8581C5.84422 23.6606 4.47984 23.2619 3.26234 22.4412C2.18984 21.7181 1.42422 20.7406 0.909843 19.5644C0.196093 17.9319 -0.0351566 16.2081 0.00421842 14.4419C0.0173434 13.8575 0.0667184 13.2731 0.112343 12.6894C0.144843 12.27 0.231093 12.1687 0.646718 12.1219C2.92734 11.8656 5.17297 11.9544 7.33734 12.8262C9.29422 13.615 10.5811 15.0356 11.2892 17.0069C11.3836 17.2687 11.4636 17.5356 11.5723 17.8675C11.6161 17.7269 11.6423 17.6444 11.6673 17.5612C12.118 16.0612 12.8561 14.7462 14.1211 13.7794C15.1505 12.9931 16.3305 12.5444 17.5861 12.2794C19.0555 11.9694 20.5386 11.9344 22.0292 12.0687C22.2155 12.0856 22.4005 12.1156 22.5861 12.1325C22.8442 12.1556 22.9811 12.3 23.0092 12.55C23.0486 12.8987 23.098 13.2481 23.1155 13.5981C23.1917 15.1019 23.1311 16.5962 22.7467 18.0619C22.3061 19.7419 21.5367 21.2206 20.1048 22.2775C19.1417 22.9887 18.0605 23.4375 16.8923 23.6637C16.2211 23.7937 15.538 23.8612 14.8605 23.9575C14.7917 23.9675 14.7248 23.985 14.6567 23.9987H12.9723C12.7348 23.9719 12.4942 23.9612 12.2605 23.9156C11.5542 23.7787 10.8617 23.9275 10.1655 23.9987H8.48109L8.48234 24ZM8.73797 20.1969C8.75672 20.1444 8.76984 20.1244 8.76984 20.105C8.77109 18.3162 8.77234 16.5275 8.76984 14.7394C8.76984 14.6837 8.75047 14.6075 8.71172 14.575C8.25609 14.1931 7.75734 13.8831 7.17672 13.6412V13.9162C7.17672 15.2362 7.20422 16.5569 7.16359 17.8756C7.14672 18.42 7.27484 18.8212 7.70047 19.1694C8.07047 19.4719 8.38422 19.8425 8.73797 20.1975V20.1969ZM14.368 20.1612C14.3873 20.1662 14.4061 20.1712 14.4255 20.1756C14.8873 19.7112 15.3467 19.2437 15.8142 18.7844C15.923 18.6775 15.968 18.5706 15.9673 18.4175C15.9623 16.9025 15.9642 15.3869 15.9642 13.8719V13.6412C15.438 13.86 14.9855 14.14 14.5555 14.4637C14.4161 14.5687 14.3642 14.6769 14.3648 14.8525C14.3717 16.5475 14.3692 18.2425 14.3692 19.9375V20.1612H14.368ZM8.19797 20.8006C8.11234 20.7069 8.06422 20.65 8.01234 20.5975C7.59984 20.1831 7.18172 19.7737 6.77547 19.3531C6.66172 19.2356 6.54547 19.195 6.38609 19.1956C4.89047 19.2006 3.39422 19.1987 1.89859 19.1987H1.63672C1.85797 19.7294 2.13797 20.1825 2.46234 20.6119C2.56547 20.7487 2.67422 20.8062 2.85109 20.8056C4.54172 20.7981 6.23234 20.8012 7.92297 20.8012H8.19859L8.19797 20.8006ZM21.4967 19.2194C21.4386 19.2094 21.4086 19.2 21.378 19.2C19.8042 19.1987 18.2305 19.1969 16.6567 19.2037C16.5698 19.2037 16.4655 19.2637 16.3998 19.3275C16.0248 19.6912 15.6605 20.0662 15.2892 20.4331C15.1817 20.5394 15.0611 20.6319 14.9086 20.7625C15.0161 20.7894 15.0367 20.7987 15.058 20.7987C16.8342 20.7994 18.6105 20.8006 20.3867 20.7962C20.4548 20.7962 20.5448 20.7625 20.5867 20.7125C20.9586 20.2694 21.2586 19.78 21.4973 19.2194H21.4967ZM11.1167 22.5775C11.1292 22.4094 11.1467 22.3019 11.1436 22.195C11.1148 21.3062 11.1286 20.4131 11.0398 19.53C10.9142 18.2787 10.5767 17.0787 9.92109 15.9887C9.82859 15.835 9.72234 15.69 9.60797 15.5194C9.58359 15.5787 9.57297 15.5925 9.57297 15.6056C9.57172 17.3706 9.57047 19.1362 9.57297 20.9012C9.57297 20.965 9.59484 21.0469 9.63734 21.09C10.1117 21.5744 10.5917 22.0525 11.1167 22.5781V22.5775ZM12.0623 22.54C12.5073 22.0937 12.9486 21.6431 13.3998 21.2037C13.5205 21.0862 13.5742 20.9694 13.5736 20.7969C13.5667 19.1256 13.5698 17.4537 13.5698 15.7825V15.56C13.5448 15.5569 13.5198 15.5537 13.4955 15.5506C12.0692 17.6719 11.9123 20.0662 12.063 22.5406L12.0623 22.54ZM3.53547 21.6125C4.64422 22.7025 8.69109 23.5712 10.5273 23.1137C10.0661 22.6531 9.62109 22.1969 9.16047 21.7569C9.07172 21.6719 8.92234 21.6075 8.80109 21.6069C7.12547 21.5969 5.44984 21.6 3.77422 21.6006C3.70047 21.6006 3.62672 21.6075 3.53609 21.6119L3.53547 21.6125ZM12.6198 23.1025C12.6311 23.1219 12.6423 23.1406 12.653 23.16C13.3142 23.16 13.9767 23.1831 14.6367 23.155C15.8723 23.1031 17.0798 22.89 18.2298 22.4119C18.7155 22.21 19.1792 21.9694 19.6555 21.6006H19.3367C17.8642 21.6006 16.3905 21.63 14.9192 21.5862C14.3398 21.5687 13.9155 21.7131 13.5505 22.1637C13.2742 22.505 12.9317 22.7919 12.6192 23.1031L12.6198 23.1025ZM4.78547 12.9469C4.78547 13.8294 4.82172 14.6587 4.77297 15.4825C4.74047 16.03 4.88797 16.4275 5.31172 16.775C5.68109 17.0781 5.99609 17.4469 6.36609 17.8175V13.3087C5.85047 13.1906 5.33672 13.0731 4.78547 12.9475V12.9469ZM16.7773 13.3069V17.8169C17.2805 17.3119 17.7567 16.8419 18.2192 16.36C18.2942 16.2819 18.3461 16.1475 18.348 16.0375C18.3598 15.3581 18.3536 14.6787 18.3536 13.9994V12.9487C17.8067 13.0731 17.2886 13.1906 16.7767 13.3069H16.7773ZM0.936718 16.7937C1.05609 17.2962 1.17047 17.7481 1.26734 18.2044C1.30047 18.3612 1.37484 18.3994 1.52297 18.3987C2.87109 18.3944 4.21984 18.3962 5.56797 18.395C5.63047 18.395 5.69297 18.3825 5.79984 18.3706C5.27547 17.8487 4.79234 17.3612 4.29859 16.8844C4.23672 16.8244 4.11922 16.7981 4.02734 16.7975C3.28672 16.7906 2.54672 16.7937 1.80609 16.7937C1.53484 16.7937 1.26359 16.7937 0.936718 16.7937ZM22.1955 16.8312C22.1355 16.8106 22.1142 16.7969 22.093 16.7969C21.0717 16.795 20.0505 16.7931 19.0292 16.7969C18.968 16.7969 18.8917 16.8312 18.8473 16.8756C18.3648 17.3531 17.8873 17.8356 17.4092 18.3175C17.3967 18.33 17.3986 18.3569 17.3898 18.3956C17.6892 18.3956 17.9767 18.3956 18.2642 18.3956C19.3792 18.3956 20.4942 18.3981 21.6086 18.3906C21.6898 18.3906 21.8273 18.3337 21.8423 18.2775C21.9723 17.7987 22.0805 17.3137 22.1948 16.8312H22.1955ZM1.47734 12.8419C2.31672 13.6837 3.14797 14.5181 3.97547 15.3487V12.8419H1.47734ZM19.1598 15.335C19.9855 14.5081 20.818 13.6744 21.6461 12.845H19.1598V15.335ZM0.842968 13.4619V15.9712H3.34234C2.51672 15.1419 1.69234 14.3144 0.842968 13.4619ZM19.7973 15.9756H22.3005V13.4619C21.4505 14.3156 20.6261 15.1431 19.7973 15.9756Z" fill="#22B573"/>
<path d="M12.038 0C12.3967 0.065 12.7636 0.10125 13.113 0.2C15.6399 0.911875 17.2442 2.55437 17.8155 5.11375C18.5567 8.4375 16.4342 11.7606 13.108 12.6037C9.66549 13.4762 6.18237 11.3656 5.36425 7.82562C4.82175 5.47812 5.48112 3.42125 7.213 1.74187C8.25425 0.730625 9.52425 0.18 10.9686 0.034375C11.0136 0.03 11.0574 0.011875 11.1024 0C11.4142 0 11.7261 0 12.038 0ZM8.77112 1.59687C8.88487 1.59687 8.958 1.59687 9.03175 1.59687C9.593 1.59687 10.1542 1.59125 10.7155 1.59875C11.3699 1.6075 11.8755 2.0325 11.948 2.6225C12.0386 3.365 11.538 3.97125 10.7892 3.98812C10.0099 4.00625 9.22987 3.99 8.4505 3.99687C8.15612 3.99937 7.97362 4.17062 7.98112 4.40812C7.988 4.64 8.16237 4.785 8.44737 4.79375C8.75112 4.80375 9.05737 4.78937 9.35737 4.825C10.0474 4.9075 10.5105 5.61937 10.3305 6.29187C10.1767 6.86875 9.71987 7.19562 9.04612 7.19812C8.13362 7.20187 7.22175 7.19937 6.30925 7.19937C6.22737 7.19937 6.14487 7.19937 6.04737 7.19937C6.24175 8.4225 6.748 9.44625 7.58425 10.3044C7.63612 10.3575 7.7305 10.3956 7.8055 10.3956C9.29487 10.4006 10.7836 10.4006 12.273 10.3981C12.5755 10.3981 12.7542 10.2469 12.7605 10.0069C12.7667 9.75562 12.5855 9.6075 12.2692 9.6C11.9736 9.59312 11.6742 9.60937 11.383 9.56937C10.6555 9.46937 10.2117 8.73375 10.4361 8.03312C10.6092 7.49187 11.0449 7.20125 11.7011 7.2C13.4005 7.1975 15.1005 7.19937 16.7999 7.19937C16.8911 7.19937 16.983 7.19937 17.1011 7.19937C17.1192 6.92312 17.1361 6.67187 17.1542 6.39687C16.8286 6.39687 16.5411 6.40125 16.2542 6.39625C15.6111 6.385 15.2624 6.07875 15.1692 5.44125C15.1442 5.27187 15.0617 5.19375 14.8899 5.19875C14.703 5.20375 14.5149 5.2075 14.3286 5.19562C13.5461 5.14562 13.0274 4.45875 13.2055 3.71437C13.3274 3.205 13.7661 2.82875 14.2949 2.81187C14.7892 2.79625 15.2849 2.80875 15.8049 2.80875C14.2474 0.78625 11.0161 0.148125 8.77112 1.59687ZM16.8961 8.02187C16.8586 8.01375 16.8361 8.00375 16.8136 8.00375C15.0824 8.0025 13.3517 8.00187 11.6205 8.00437C11.538 8.00437 11.4474 8.02375 11.3749 8.06187C11.2111 8.14875 11.1555 8.29812 11.1899 8.47812C11.2324 8.69937 11.393 8.78687 11.5942 8.79687C11.8899 8.81125 12.1874 8.79437 12.4824 8.81375C13.1274 8.85625 13.6249 9.46812 13.5505 10.1087C13.473 10.7737 12.988 11.1956 12.2836 11.1987C11.1999 11.2031 10.1161 11.2 9.03237 11.2C8.958 11.2 8.88425 11.2 8.77237 11.2C11.6242 13.0137 15.833 11.6112 16.8955 8.02187H16.8961ZM5.99737 6.395C7.073 6.395 8.11675 6.4 9.1605 6.39125C9.41612 6.38937 9.56425 6.22375 9.56425 5.99812C9.56425 5.77437 9.41737 5.61812 9.15987 5.6025C8.86487 5.585 8.56737 5.6025 8.27237 5.58125C7.66925 5.53875 7.2105 5.05062 7.18112 4.43937C7.153 3.85937 7.588 3.32187 8.16925 3.22625C8.29925 3.205 8.43237 3.19625 8.56425 3.19625C9.28925 3.19312 10.0136 3.1975 10.7386 3.1925C10.9955 3.19062 11.1505 3.0425 11.1599 2.8175C11.1699 2.595 11.0211 2.43312 10.7749 2.40062C10.7367 2.39562 10.6974 2.39625 10.658 2.39625C9.71487 2.39625 8.77175 2.3925 7.82925 2.40187C7.73612 2.4025 7.62112 2.45937 7.55425 2.5275C7.09425 2.99125 6.73362 3.52687 6.4705 4.125C6.15675 4.83812 5.98175 5.58187 5.99737 6.395ZM17.073 5.58937C17.0186 5.01187 16.7561 4.2 16.4592 3.72C16.4236 3.6625 16.3299 3.60937 16.2617 3.60812C15.6392 3.6 15.0161 3.6 14.393 3.60625C14.1442 3.60875 13.978 3.76625 13.9674 3.98312C13.9561 4.20437 14.1267 4.38062 14.383 4.39937C14.5149 4.40937 14.6474 4.4025 14.7799 4.4025C15.5111 4.40312 15.8224 4.66562 15.968 5.38125C15.9836 5.45937 16.0792 5.57562 16.1442 5.58C16.4517 5.60125 16.7617 5.58937 17.0724 5.58937H17.073Z" fill="black"/>
<path d="M2.77104 5.61436V6.38061H1.99854V5.61436H2.77104Z" fill="black"/>
<path d="M4.36235 6.38188H3.59485V5.61313H4.36235V6.38188Z" fill="black"/>
<path d="M18.7686 6.38188V5.61313H19.5348V6.38188H18.7686Z" fill="black"/>
<path d="M21.1398 5.61374V6.38186H20.3661V5.61374H21.1398Z" fill="black"/>
<path d="M1.99988 9.58374V8.81999H2.7705V9.58374H1.99988Z" fill="black"/>
<path d="M20.3629 9.58063V8.82251H21.1367V9.58063H20.3629Z" fill="black"/>
<path d="M2.77107 10.4156V11.1812H2.00232V10.4156H2.77107Z" fill="black"/>
<path d="M20.3673 11.1844V10.4194H21.1354V11.1844H20.3673Z" fill="black"/>
<path d="M1.99854 7.98687V7.21562H2.76541V7.98687H1.99854Z" fill="black"/>
<path d="M21.143 7.21313V7.98001H20.3717V7.21313H21.143Z" fill="black"/>
</svg>
