<svg width="21" height="24" viewBox="0 0 21 24" fill="none" xmlns="http://www.w3.org/2000/svg">
<path d="M10.6439 0C10.8751 0.0290671 11.107 0.0549045 11.337 0.0884932C14.2366 0.514811 16.3979 2.03211 17.8486 4.55643C18.4985 5.68746 18.8318 6.92637 18.9041 8.23568C19.0204 10.3537 18.4461 12.2618 17.1988 13.9709C17.0658 14.1537 16.9224 14.3314 16.7673 14.4954C16.6511 14.6188 16.653 14.7131 16.737 14.8578C17.9055 16.8693 19.0669 18.8846 20.2309 20.8986C20.3232 21.0581 20.4053 21.2054 20.2851 21.396C20.1043 21.6847 19.9421 21.7558 19.6211 21.6298C18.8802 21.3391 18.1425 21.0426 17.403 20.7487C17.2079 20.6712 17.0122 20.5944 16.7809 20.5033C16.737 20.7849 16.6918 21.0497 16.6543 21.3152C16.5535 22.0187 16.456 22.7221 16.3565 23.4255C16.3443 23.5108 16.3326 23.5967 16.3087 23.6787C16.2144 24.0062 15.8249 24.1018 15.5879 23.8525C15.5194 23.7801 15.469 23.689 15.418 23.6018C14.2521 21.5891 13.0862 19.5764 11.9261 17.5598C11.8414 17.4125 11.7678 17.3518 11.5844 17.3854C10.6148 17.5598 9.64203 17.5527 8.67248 17.3821C8.50519 17.3524 8.44059 17.4118 8.36566 17.5417C7.20492 19.5576 6.039 21.5704 4.87503 23.5844C4.74713 23.8053 4.62247 24.0411 4.315 23.9939C3.98558 23.9435 3.96297 23.671 3.92615 23.4081C3.79115 22.4501 3.64904 21.4935 3.50629 20.5085C3.40811 20.544 3.32285 20.5724 3.23952 20.6053C2.40626 20.9374 1.57365 21.2707 0.739749 21.602C0.667404 21.6304 0.593122 21.6569 0.517547 21.6731C0.181661 21.7454 -0.0754215 21.4774 0.020177 21.1486C0.04989 21.0452 0.10544 20.9477 0.159699 20.854C1.30236 18.8729 2.44308 16.8906 3.59608 14.9153C3.71234 14.7157 3.68586 14.6014 3.54505 14.4347C1.89145 12.4827 1.18092 10.2181 1.51552 7.69115C1.95023 4.40205 3.76208 2.08508 6.76374 0.704716C7.63317 0.304882 8.56461 0.0936607 9.52512 0.0361724C9.58584 0.0322968 9.64591 0.0122728 9.70598 0C10.0186 0 10.3312 0 10.6439 0ZM18.0482 8.71755C18.0321 4.37621 14.5434 0.875243 10.1885 0.866845C5.83812 0.858448 2.31519 4.42143 2.32229 8.76922C2.3294 13.1629 5.8097 16.6186 10.1866 16.6322C14.5053 16.6458 18.065 13.0408 18.0489 8.71755H18.0482ZM18.8744 20.3605C18.8854 20.347 18.897 20.3334 18.908 20.3198C17.9397 18.6456 16.9715 16.9713 16.0194 15.3242C15.4832 15.684 14.9917 16.0605 14.4568 16.3603C13.9168 16.6626 13.3342 16.888 12.7542 17.1548C13.7127 18.8258 14.6823 20.5143 15.6512 22.2027C15.8114 21.4315 15.925 20.6835 16.0368 19.9355C16.1007 19.5079 16.3462 19.3639 16.7512 19.5234C17.3319 19.7514 17.9113 19.982 18.4914 20.2113C18.6186 20.2617 18.7465 20.3108 18.8737 20.3605H18.8744ZM4.34407 15.3255C3.39067 16.9745 2.42177 18.6495 1.4225 20.376C1.55557 20.3302 1.62856 20.3089 1.69896 20.2811C2.34425 20.0259 2.98761 19.7676 3.63354 19.5144C3.99656 19.3723 4.25493 19.5157 4.31629 19.8955C4.39833 20.4038 4.47197 20.9135 4.55012 21.4218C4.58953 21.677 4.63087 21.9314 4.67091 22.1866C4.68771 22.1872 4.7045 22.1879 4.7213 22.1885C5.68826 20.5026 6.65458 18.8167 7.60798 17.1541C7.02018 16.8841 6.44401 16.6613 5.91046 16.3622C5.37563 16.0625 4.88343 15.6865 4.34407 15.3255Z" fill="black"/>
<path d="M18.0483 8.71755C18.0644 13.0408 14.5047 16.6458 10.1859 16.6322C5.80907 16.6186 2.32877 13.1629 2.32167 8.76923C2.31456 4.42143 5.83749 0.858454 10.1879 0.866851C14.5428 0.875249 18.0315 4.37622 18.0476 8.71755H18.0483ZM10.1885 15.5658C13.9582 15.558 16.9812 12.5344 16.9993 8.75437C17.0167 5.00019 13.9362 1.91843 10.1756 1.92942C6.40527 1.9404 3.37519 4.97371 3.36937 8.74403C3.36291 12.5176 6.41819 15.5735 10.1892 15.5658H10.1885Z" fill="#22B573"/>
<path d="M10.1886 15.5658C6.4176 15.5735 3.36233 12.5169 3.36878 8.74403C3.37524 4.97371 6.40468 1.94039 10.175 1.92941C13.935 1.91843 17.0161 5.00019 16.9987 8.75437C16.9812 12.5344 13.9576 15.5587 10.1879 15.5658H10.1886ZM4.224 8.75501C4.22917 12.0241 6.90334 14.6976 10.1795 14.708C13.4803 14.7183 16.1383 12.0473 16.1338 8.72272C16.1299 5.44653 13.4577 2.7743 10.1828 2.77107C6.92854 2.76848 4.21884 5.48916 4.22336 8.75501H4.224Z" fill="black"/>
<path d="M10.2428 11.3194C9.76484 11.6662 9.29589 12.015 8.81854 12.3522C8.29986 12.7185 7.69009 12.5822 7.37488 12.0377C7.24311 11.8096 7.22179 11.5661 7.30253 11.3155C7.46337 10.8188 7.61969 10.3201 7.7928 9.82726C7.84899 9.66836 7.83284 9.58052 7.68622 9.48104C7.25344 9.18779 6.82648 8.88484 6.40985 8.56898C6.08171 8.3203 5.95963 7.97278 6.04877 7.57166C6.13016 7.2067 6.36722 6.97094 6.73023 6.87405C6.81873 6.85015 6.91497 6.84562 7.00734 6.84498C7.51504 6.84175 8.02275 6.83594 8.53045 6.84692C8.69129 6.85015 8.76364 6.80299 8.8095 6.64797C8.96065 6.13962 9.11567 5.63256 9.29072 5.1326C9.48127 4.58808 10.0226 4.34779 10.5626 4.55191C10.8804 4.67205 11.0515 4.92849 11.1517 5.23725C11.3035 5.70426 11.4533 6.17256 11.5922 6.6428C11.6368 6.79266 11.7014 6.85208 11.868 6.84821C12.3912 6.83594 12.9144 6.8411 13.4376 6.84692C13.8878 6.85208 14.2295 7.11756 14.3723 7.56132C14.5163 8.00831 14.4123 8.3274 14.0138 8.61936C13.6043 8.91908 13.1928 9.21621 12.7749 9.503C12.6554 9.58504 12.6347 9.65803 12.6812 9.79174C12.8479 10.2704 12.9984 10.7542 13.1612 11.2341C13.3052 11.6591 13.1922 12.0745 12.8505 12.349C12.5243 12.6106 12.0909 12.6351 11.7169 12.3826C11.297 12.0984 10.8933 11.7903 10.4818 11.4925C10.4063 11.4376 10.3307 11.384 10.2422 11.3213L10.2428 11.3194ZM8.0305 7.6847C7.72562 7.6847 7.42138 7.67759 7.11715 7.68922C7.02736 7.69245 6.94016 7.74671 6.85102 7.77771C6.9027 7.84876 6.94081 7.93661 7.00734 7.98828C7.46208 8.34484 7.92198 8.69365 8.3806 9.04568C8.68806 9.28145 8.71325 9.36025 8.59634 9.72262C8.41483 10.2865 8.22816 10.8491 8.05246 11.4143C8.02792 11.4931 8.05246 11.5868 8.0544 11.6733C8.13837 11.6494 8.23591 11.6456 8.30309 11.5978C8.7927 11.249 9.27522 10.8905 9.76096 10.5365C10.0658 10.3149 10.217 10.3149 10.5199 10.5359C10.9805 10.8711 11.4372 11.2121 11.9022 11.5416C11.9959 11.6081 12.1173 11.6346 12.2259 11.6798C12.22 11.5655 12.2375 11.444 12.2045 11.3381C12.0392 10.802 11.8603 10.2697 11.6865 9.73619C11.5722 9.38286 11.6116 9.26142 11.9171 9.03793C12.4087 8.67814 12.9021 8.32223 13.3918 7.95986C13.4551 7.91271 13.4977 7.83714 13.5494 7.77513C13.4686 7.74477 13.3879 7.68922 13.3071 7.68857C12.7213 7.68082 12.1354 7.6847 11.5502 7.6847C11.1342 7.6847 11.0134 7.59749 10.8862 7.20477C10.7131 6.67058 10.5445 6.13574 10.3656 5.60349C10.3333 5.50789 10.2616 5.42586 10.2073 5.33737C10.1492 5.42844 10.0704 5.51241 10.0368 5.61189C9.85462 6.15124 9.68474 6.69448 9.50905 7.23512C9.39149 7.5962 9.27199 7.6834 8.89735 7.68405C8.60861 7.6847 8.31923 7.68405 8.0305 7.68405V7.6847Z" fill="black"/>
<path d="M8.02982 7.6847C8.31855 7.6847 8.60793 7.68534 8.89667 7.6847C9.27131 7.6834 9.39081 7.59685 9.50837 7.23577C9.68406 6.69448 9.85394 6.15125 10.0361 5.61254C10.0697 5.51306 10.1485 5.42909 10.2066 5.33801C10.2602 5.42651 10.3326 5.50854 10.3649 5.60414C10.5438 6.13639 10.7124 6.67122 10.8855 7.20541C11.0128 7.59814 11.1329 7.68534 11.5495 7.68534C12.1354 7.68534 12.7213 7.68211 13.3065 7.68922C13.3879 7.69051 13.468 7.74541 13.5487 7.77577C13.4964 7.83778 13.4544 7.91336 13.3911 7.96051C12.9015 8.32288 12.408 8.67879 11.9164 9.03858C11.6109 9.26207 11.5715 9.38351 11.6858 9.73683C11.8589 10.2704 12.0378 10.8026 12.2039 11.3388C12.2368 11.4447 12.2194 11.5661 12.2252 11.6805C12.1167 11.6352 11.9952 11.6088 11.9016 11.5422C11.4365 11.2128 10.9798 10.8717 10.5193 10.5365C10.2163 10.3156 10.0652 10.3156 9.76028 10.5371C9.27389 10.8905 8.79138 11.249 8.3024 11.5984C8.23587 11.6462 8.13769 11.6494 8.05372 11.674C8.05178 11.5874 8.02724 11.4938 8.05178 11.415C8.22748 10.8491 8.41415 10.2872 8.59566 9.72327C8.71257 9.3609 8.68674 9.28274 8.37992 9.04633C7.92195 8.69429 7.4614 8.34549 7.00666 7.98893C6.94013 7.93661 6.90202 7.84941 6.85034 7.77836C6.93883 7.74735 7.02668 7.69309 7.11647 7.68986C7.4207 7.67888 7.72558 7.68534 8.02982 7.68534V7.6847Z" fill="#22B573"/>
</svg>
