<svg width="170" height="43" viewBox="0 0 170 43" fill="none" xmlns="http://www.w3.org/2000/svg">
<path d="M13.265 33C11.0017 32.8367 8.90167 32.1833 6.965 31.04C5.05167 29.8733 3.52333 28.38 2.38 26.56C1.26 24.74 0.7 22.8033 0.7 20.75C0.7 18.4867 1.24833 16.375 2.345 14.415C3.44167 12.4317 5.27333 10.8217 7.84 9.585C10.4067 8.325 13.755 7.695 17.885 7.695C18.6317 7.695 19.5417 7.75333 20.615 7.87C21.6883 7.96333 22.7617 8.06833 23.835 8.185C25.0717 8.325 26.3433 8.465 27.65 8.605C28.98 8.72167 30.1467 8.78 31.15 8.78C32.4333 8.78 33.67 8.465 34.86 7.835C36.0733 7.18167 37.0533 6.4 37.8 5.49C38.5467 4.55667 38.92 3.71667 38.92 2.97C38.92 2.50333 38.745 2.14167 38.395 1.885C38.045 1.605 37.5083 1.465 36.785 1.465C36.225 1.465 35.735 1.745 35.315 2.305C34.9183 2.84167 34.72 3.425 34.72 4.055C34.72 4.80167 35.0233 5.36167 35.63 5.735C34.44 6.48167 33.3317 6.855 32.305 6.855C31.4183 6.855 30.7067 6.58667 30.17 6.05C29.6333 5.51333 29.365 4.86 29.365 4.09C29.365 3.43667 29.575 2.81833 29.995 2.235C30.4383 1.62833 31.1033 1.13833 31.99 0.764998C32.8767 0.368332 33.9733 0.169999 35.28 0.169999C36.82 0.169999 38.15 0.438333 39.27 0.974999C40.39 1.48833 41.23 2.165 41.79 3.005C42.35 3.845 42.63 4.73167 42.63 5.665C42.63 6.59833 42.35 7.485 41.79 8.325C41.2533 9.14167 40.425 9.80667 39.305 10.32C38.2083 10.8333 36.89 11.09 35.35 11.09C34.4167 11.09 33.1333 10.95 31.5 10.67C30.24 10.4833 29.12 10.3433 28.14 10.25C27.16 10.1333 26.11 10.075 24.99 10.075C22.1433 10.075 19.5767 10.5417 17.29 11.475C15.0267 12.4083 13.2417 13.7967 11.935 15.64C10.6283 17.4833 9.975 19.7 9.975 22.29C9.975 23.9233 10.29 25.4983 10.92 27.015C11.55 28.5317 12.4367 29.7683 13.58 30.725C14.7467 31.6817 16.065 32.16 17.535 32.16V23.34C17.535 22.5233 17.395 21.7767 17.115 21.1C16.8583 20.4233 16.3333 19.8633 15.54 19.42V18.93H27.93V19.42C27.1367 19.8633 26.6 20.4233 26.32 21.1C26.0633 21.7533 25.935 22.5 25.935 23.34V29.36C25.935 29.8033 25.7483 30.3167 25.375 30.9C25.0017 31.4833 24.465 31.985 23.765 32.405C23.065 32.8017 22.2367 33 21.28 33H13.265ZM29.3426 32.51C30.1359 32.0667 30.6609 31.5067 30.9176 30.83C31.1976 30.1533 31.3376 29.4067 31.3376 28.59V20.155C31.3376 18.5217 31.2909 17.3433 31.1976 16.62C31.1042 15.8967 30.9176 15.3833 30.6376 15.08C30.3809 14.7767 29.9492 14.5783 29.3426 14.485V13.995H39.7376V18.37C40.4376 17.1333 41.3592 16.0483 42.5026 15.115C43.6459 14.1583 44.7892 13.68 45.9326 13.68C47.0059 13.68 47.8226 14.0067 48.3826 14.66C48.9426 15.29 49.2226 16.06 49.2226 16.97C49.2226 17.9033 48.9076 18.6383 48.2776 19.175C47.6476 19.7117 46.9009 19.98 46.0376 19.98C45.1509 19.98 44.3809 19.7 43.7276 19.14C43.0742 18.58 42.7476 17.7983 42.7476 16.795C42.7476 16.585 42.7942 16.3283 42.8876 16.025C42.4442 16.3517 41.9192 16.8883 41.3126 17.635C40.7292 18.3583 40.2042 19.1283 39.7376 19.945V28.59C39.7376 29.43 39.8659 30.1883 40.1226 30.865C40.4026 31.5183 40.9392 32.0667 41.7326 32.51V33H29.3426V32.51ZM60.2952 33.49C58.4285 33.49 56.6552 33.1517 54.9752 32.475C53.2952 31.7983 51.9185 30.7367 50.8452 29.29C49.7718 27.82 49.2352 25.9767 49.2352 23.76C49.2352 22.0567 49.6318 20.435 50.4252 18.895C51.2185 17.355 52.4318 16.1067 54.0652 15.15C55.7218 14.17 57.7518 13.68 60.1552 13.68C62.4885 13.68 64.5068 14.1117 66.2102 14.975C67.9135 15.8383 68.7652 17.215 68.7652 19.105C68.7652 20.9017 68.0418 22.3133 66.5952 23.34C65.1485 24.3433 63.3518 24.845 61.2052 24.845C60.1785 24.845 59.0352 24.6933 57.7752 24.39C58.0785 25.6967 58.5802 26.8283 59.2802 27.785C59.9802 28.7183 60.7735 29.43 61.6602 29.92C62.5468 30.3867 63.4335 30.62 64.3202 30.62C65.3468 30.62 66.2102 30.2817 66.9102 29.605C67.6102 28.9283 68.0535 27.9367 68.2402 26.63H68.9402C68.8468 28.03 68.4035 29.255 67.6102 30.305C66.8168 31.3317 65.7785 32.125 64.4952 32.685C63.2118 33.2217 61.8118 33.49 60.2952 33.49ZM57.6352 23.725C57.9618 23.7717 58.2068 23.795 58.3702 23.795C59.6768 23.795 60.7268 23.165 61.5202 21.905C62.3368 20.645 62.7452 19.0467 62.7452 17.11C62.7452 16.27 62.6168 15.5817 62.3602 15.045C62.1268 14.5083 61.7652 14.24 61.2752 14.24C60.0852 14.24 59.1518 14.9517 58.4752 16.375C57.7985 17.775 57.4602 19.49 57.4602 21.52C57.4602 22.2433 57.5185 22.9783 57.6352 23.725ZM81.384 33.49C79.5174 33.49 77.744 33.1517 76.064 32.475C74.384 31.7983 73.0074 30.7367 71.934 29.29C70.8607 27.82 70.324 25.9767 70.324 23.76C70.324 22.0567 70.7207 20.435 71.514 18.895C72.3074 17.355 73.5207 16.1067 75.154 15.15C76.8107 14.17 78.8407 13.68 81.244 13.68C83.5774 13.68 85.5957 14.1117 87.299 14.975C89.0024 15.8383 89.854 17.215 89.854 19.105C89.854 20.9017 89.1307 22.3133 87.684 23.34C86.2374 24.3433 84.4407 24.845 82.294 24.845C81.2674 24.845 80.124 24.6933 78.864 24.39C79.1674 25.6967 79.669 26.8283 80.369 27.785C81.069 28.7183 81.8624 29.43 82.749 29.92C83.6357 30.3867 84.5224 30.62 85.409 30.62C86.4357 30.62 87.299 30.2817 87.999 29.605C88.699 28.9283 89.1424 27.9367 89.329 26.63H90.029C89.9357 28.03 89.4924 29.255 88.699 30.305C87.9057 31.3317 86.8674 32.125 85.584 32.685C84.3007 33.2217 82.9007 33.49 81.384 33.49ZM78.724 23.725C79.0507 23.7717 79.2957 23.795 79.459 23.795C80.7657 23.795 81.8157 23.165 82.609 21.905C83.4257 20.645 83.834 19.0467 83.834 17.11C83.834 16.27 83.7057 15.5817 83.449 15.045C83.2157 14.5083 82.854 14.24 82.364 14.24C81.174 14.24 80.2407 14.9517 79.564 16.375C78.8874 17.775 78.549 19.49 78.549 21.52C78.549 22.2433 78.6074 22.9783 78.724 23.725ZM91.4129 32.51C92.2062 32.0667 92.7312 31.5067 92.9879 30.83C93.2679 30.1533 93.4079 29.4067 93.4079 28.59V20.155C93.4079 18.5217 93.3612 17.3433 93.2679 16.62C93.1746 15.8967 92.9879 15.3833 92.7079 15.08C92.4512 14.7767 92.0196 14.5783 91.4129 14.485V13.995H101.808V16.76C102.625 15.7567 103.605 14.9983 104.748 14.485C105.915 13.9717 107.105 13.715 108.318 13.715C109.508 13.715 110.605 13.9483 111.608 14.415C112.635 14.8583 113.451 15.5233 114.058 16.41C114.688 17.2733 115.003 18.3 115.003 19.49V28.59C115.003 29.43 115.131 30.1883 115.388 30.865C115.668 31.5183 116.205 32.0667 116.998 32.51V33H104.608V32.51C105.401 32.0667 105.926 31.5067 106.183 30.83C106.463 30.1533 106.603 29.4067 106.603 28.59V19.98C106.603 18.86 106.37 18.0083 105.903 17.425C105.436 16.8183 104.853 16.515 104.153 16.515C103.313 16.515 102.531 16.9 101.808 17.67V28.59C101.808 29.43 101.936 30.1883 102.193 30.865C102.473 31.5183 103.01 32.0667 103.803 32.51V33H91.4129V32.51ZM124.54 12.07C123.607 12.07 122.802 11.7433 122.125 11.09C121.472 10.4133 121.145 9.60833 121.145 8.675C121.145 7.765 121.472 6.98333 122.125 6.33C122.802 5.65333 123.607 5.315 124.54 5.315C125.473 5.315 126.267 5.65333 126.92 6.33C127.573 6.98333 127.9 7.765 127.9 8.675C127.9 9.60833 127.573 10.4133 126.92 11.09C126.267 11.7433 125.473 12.07 124.54 12.07ZM118.415 32.51C119.208 32.0667 119.733 31.5067 119.99 30.83C120.27 30.1533 120.41 29.4067 120.41 28.59V18.405C120.41 17.0983 120.282 16.1533 120.025 15.57C119.768 14.9867 119.232 14.625 118.415 14.485V13.995H128.81V28.59C128.81 29.43 128.938 30.1883 129.195 30.865C129.475 31.5183 130.012 32.0667 130.805 32.51V33H118.415V32.51ZM132.189 32.51C132.983 32.0667 133.508 31.5067 133.764 30.83C134.044 30.1533 134.184 29.4067 134.184 28.59V15.395H132.924V13.995H134.184V12.455C134.184 10.8917 134.686 9.63167 135.689 8.675C136.716 7.695 138.034 6.96 139.644 6.47C140.694 6.12 141.756 5.88666 142.829 5.77C143.926 5.63 144.871 5.56 145.664 5.56V6.19C144.941 6.19 144.241 6.4 143.564 6.82C142.911 7.24 142.584 8.05667 142.584 9.27V13.995H145.209V15.395H142.584V28.59C142.584 29.43 142.713 30.1883 142.969 30.865C143.249 31.5183 143.786 32.0667 144.579 32.51V33H132.189V32.51ZM151.746 36.535L152.236 36.395C152.609 36.745 153.146 37.0133 153.846 37.2C154.546 37.41 155.293 37.515 156.086 37.515C157.253 37.515 158.303 37.2817 159.236 36.815C160.169 36.3483 160.788 35.6367 161.091 34.68L161.651 33H154.826V32.44C155.059 32.44 155.246 32.3117 155.386 32.055C155.526 31.775 155.596 31.46 155.596 31.11C155.596 30.7833 155.526 30.48 155.386 30.2L148.281 17.04C147.861 16.34 147.418 15.7567 146.951 15.29C146.508 14.8233 146.076 14.59 145.656 14.59V13.995H157.836V14.59C156.879 14.59 156.401 14.975 156.401 15.745C156.401 16.095 156.494 16.4567 156.681 16.83L162.946 28.415L163.716 25.685C164.393 23.305 164.731 21.4033 164.731 19.98C164.731 18.65 164.439 17.53 163.856 16.62C163.296 15.71 162.363 15.0217 161.056 14.555V13.995H169.806V14.555C169.176 14.7883 168.499 15.465 167.776 16.585C167.076 17.705 166.388 19.2567 165.711 21.24L162.421 33L160.601 38.985C160.204 40.245 159.318 41.1433 157.941 41.68C156.564 42.24 155.176 42.52 153.776 42.52L151.746 36.535Z" fill="#55B76B"/>
</svg>
